<?xml version="1.0" standalone="no"?>
<!DOCTYPE svg PUBLIC "-//W3C//DTD SVG 1.1//EN" "http://www.w3.org/Graphics/SVG/1.1/DTD/svg11.dtd" >
<svg xmlns="http://www.w3.org/2000/svg" xmlns:xlink="http://www.w3.org/1999/xlink" version="1.1">
<metadata>
Created by FontForge 20170731 at Fri Dec 27 12:16:26 2019
 By Aleksey,,,
Free for personal and comercial use
</metadata>
<defs>
<font id="Mak-Light" horiz-adv-x="654" >
  <font-face 
    font-family="Mak Light"
    font-weight="300"
    font-stretch="normal"
    units-per-em="1000"
    panose-1="0 0 0 0 0 0 0 0 0 0"
    ascent="800"
    descent="-200"
    x-height="500"
    cap-height="697"
    bbox="-23 -277 1241 889"
    underline-thickness="50"
    underline-position="-225"
    unicode-range="U+000D-2212"
  />
<missing-glyph horiz-adv-x="250" 
 />
    <glyph glyph-name=".notdef" horiz-adv-x="250" 
 />
    <glyph glyph-name="uni0000" horiz-adv-x="0" 
 />
    <glyph glyph-name="uni0000" horiz-adv-x="0" 
 />
    <glyph glyph-name="uni000D" unicode="&#xd;" horiz-adv-x="250" 
 />
    <glyph glyph-name="space" unicode=" " horiz-adv-x="400" 
 />
    <glyph glyph-name="exclam" unicode="!" horiz-adv-x="210" 
d="M152 205h-95v491h95v-491zM40 50q0 27 19 46.5t46 19.5t46 -19.5t19 -46.5t-19 -46t-46 -19t-46 19t-19 46z" />
    <glyph glyph-name="quotedbl" unicode="&#x22;" horiz-adv-x="154" 
d="M40 612v138h17v-138h-17zM97 612v138h17v-138h-17z" />
    <glyph glyph-name="numbersign" unicode="#" horiz-adv-x="695" 
d="M20 193v16h107l41 278h-132v17h135l29 193h95l-28 -193h207l29 193h96l-29 -193h105v-17h-107l-42 -278h132v-16h-134l-29 -193h-96l29 193h-208l-28 -193h-96l29 193h-105zM223 209h207l42 278h-208z" />
    <glyph glyph-name="dollar" unicode="$" horiz-adv-x="551" 
d="M251 177q-107 2 -159 45t-52 131l97 14q0 -92 23.5 -131.5t90.5 -42.5v232q-102 20 -143 51t-41 107q0 61 52 92.5t132 33.5v81h17v-81q62 -1 104 -17.5t64 -47t30.5 -65t8.5 -79.5l-81 -12q60 -21 89 -56t29 -91q0 -89 -54 -126t-190 -38v-82h-17v82zM268 193
q108 1 146 28.5t38 83.5q0 23 -10 40.5t-24 28.5t-40.5 20.5t-49 15t-60.5 12.5v-229zM115 600q0 -36 32.5 -56t103.5 -28v179q-68 -2 -102 -22.5t-34 -72.5zM268 695v-180q66 -8 116 -24v12q0 33 -0.5 49t-2.5 41t-6 36.5t-12.5 26.5t-21 21.5t-30.5 12t-43 5.5z" />
    <glyph glyph-name="percent" unicode="%" horiz-adv-x="739" 
d="M195 404q-64 0 -109.5 45t-45.5 109t45.5 109t109.5 45q71 0 120.5 -41.5t61.5 -111.5q12 -71 -12 -138l206 276h120l-281 -375q-48 -90 -31 -181q10 -57 52 -98t114 -41q57 0 97 40.5t40 96.5q0 57 -40 97.5t-97 40.5q-55 0 -90.5 -39t-35.5 -99h-16q0 64 39.5 109.5
t102.5 45.5q64 0 109 -45.5t45 -109.5t-45 -109t-109 -45q-71 0 -119.5 41.5t-62.5 111.5q-13 67 7 131l-201 -269h-120l263 351q67 107 48 205q-11 58 -52 98.5t-113 40.5q-57 0 -97.5 -40t-40.5 -97t40.5 -97.5t97.5 -40.5q54 0 89.5 39t35.5 99h17q0 -64 -39.5 -109
t-102.5 -45z" />
    <glyph glyph-name="ampersand" unicode="&#x26;" horiz-adv-x="687" 
d="M35 176q0 67 40 114.5t124 60.5q-69 74 -83 158.5t34.5 143t147.5 58.5q103 0 161 -52.5t69 -141.5l-95 -43q0 110 -30.5 166.5t-104.5 56.5q-68 0 -94.5 -24t-26.5 -71q0 -82 81.5 -180.5t271.5 -274.5q34 97 34 206h16q0 -123 -35 -218q49 -46 142 -135h-142
q-11 10 -32 30t-23 22q-60 -66 -197 -66q-31 0 -58.5 2.5t-66.5 14t-66 30.5t-47 56t-20 87zM211 334q-74 -32 -74 -158q0 -88 50 -132t106 -44q66 0 108.5 11t77.5 50q-197 184 -268 273z" />
    <glyph glyph-name="quotesingle" unicode="'" horiz-adv-x="97" 
d="M57 750v-138h-17v138h17z" />
    <glyph glyph-name="parenleft" unicode="(" horiz-adv-x="349" 
d="M35 348q0 167 73 265.5t222 98.5v-16q-49 0 -83.5 -18t-53.5 -46t-30 -76.5t-14 -94t-3 -113.5q0 -58 2 -96t7.5 -82t18 -71.5t32.5 -52t51 -35.5t73 -11v-16q-147 0 -221 100t-74 264z" />
    <glyph glyph-name="parenright" unicode=")" horiz-adv-x="354" 
d="M25 696v16q147 0 221 -100t74 -264q0 -167 -73 -265.5t-222 -98.5v16q49 0 83 18t53.5 46.5t30 76.5t13.5 93.5t3 113.5q0 58 -1.5 95.5t-7.5 82t-18 72t-32 52t-51 35.5t-73 11z" />
    <glyph glyph-name="asterisk" unicode="*" horiz-adv-x="293" 
d="M36 589l-6 18q1 1 8.5 3t22.5 4t31 2q22 0 42 -4q-13 40 -51 78l12 14q42 -42 56 -88q15 16 26 37t14 32.5t3 13.5l18 -3l-1 -4q-1 -4 -2.5 -9t-4 -12t-6 -15t-8.5 -17t-11.5 -18.5t-14.5 -17.5q25 -4 45.5 -3t34.5 4l13 4l6 -17q-20 -10 -63 -10q-22 0 -41 5
q7 -21 20 -40.5t21.5 -28.5t9.5 -9l-12 -14q-3 1 -12 10.5t-23 31t-21 45.5q-15 -16 -25.5 -37t-14 -32.5t-3.5 -13.5l-18 4l1 4q1 3 2.5 8t4 12t6.5 15.5t8.5 17t11 18t14.5 17.5q-17 4 -37 4q-14 0 -28 -2t-20.5 -4t-7.5 -3z" />
    <glyph glyph-name="plus" unicode="+" horiz-adv-x="529" 
d="M61 305h195v195h17v-195h195v-17h-195v-195h-17v195h-195v17z" />
    <glyph glyph-name="comma" unicode="," horiz-adv-x="197" 
d="M20 -72l8 14q23 -13 49 -13q18 0 33 6q29 12 41.5 42.5t5.5 62.5q-4 -24 -22 -40t-43 -16q-27 0 -46 19t-19 46t19 46t46 19q54 0 74 -41t5 -93q-9 -31 -35 -49.5t-58 -18.5q-30 0 -58 16z" />
    <glyph glyph-name="hyphen" unicode="-" horiz-adv-x="371" 
d="M346 288h-321v17h321v-17z" />
    <glyph glyph-name="period" unicode="." horiz-adv-x="169" 
d="M20 49q0 27 19 46.5t46 19.5t46 -19.5t19 -46.5t-19 -46t-46 -19t-46 19t-19 46z" />
    <glyph glyph-name="slash" unicode="/" horiz-adv-x="257" 
d="M257 724l-241 -765h-16l241 765h16z" />
    <glyph glyph-name="zero" unicode="0" horiz-adv-x="713" 
d="M35 348q0 91 26.5 162t72 114t102.5 65.5t120 22.5q64 0 120.5 -22.5t102.5 -65.5t72.5 -114t26.5 -162q0 -92 -26.5 -163.5t-72.5 -114t-102.5 -64.5t-120.5 -22t-120 22t-102 64.5t-72.5 114t-26.5 163.5zM356 698q-38 0 -69 -9t-60.5 -32.5t-49.5 -62t-32 -101
t-12 -145.5q0 -104 17.5 -176t50 -108.5t69.5 -51t86 -14.5t86.5 15t70.5 51.5t50.5 108t17.5 175.5q0 103 -17.5 174.5t-50.5 108t-70.5 52t-86.5 15.5z" />
    <glyph glyph-name="one" unicode="1" horiz-adv-x="326" 
d="M45 189l-15 8q9 13 40.5 81.5t71 196t39.5 222.5h95v-697h-95v557q-8 -38 -20 -78t-24.5 -75t-25.5 -68t-24.5 -59t-21 -45.5t-15.5 -31.5z" />
    <glyph glyph-name="two" unicode="2" horiz-adv-x="610" 
d="M45 494q0 73 37 123.5t90.5 71.5t118.5 21q109 0 179 -58.5t70 -166.5q0 -49 -22 -87.5t-61.5 -63t-78 -41t-87.5 -33.5q-17 -5 -25 -8q-36 -13 -53.5 -19.5t-44.5 -20.5t-41.5 -28t-28.5 -37t-22 -52h489v-95h-516q0 41 6 74t14.5 56.5t26 43.5t31.5 32t40.5 25
t43.5 19.5t50 17.5q51 18 79.5 32t54.5 38t36.5 59t10.5 88q0 105 -42.5 158.5t-108.5 53.5q-37 0 -63.5 -14t-41.5 -34.5t-23.5 -51.5t-11 -57.5t-2.5 -59.5z" />
    <glyph glyph-name="three" unicode="3" horiz-adv-x="657" 
d="M30 113l13 6q43 -61 107.5 -91t127.5 -30q129 0 176 46.5t47 150.5q0 94 -49.5 134.5t-160.5 40.5h-51v13q31 0 46 0.5t40 2t37.5 5.5t30.5 11t27 18.5t18.5 27.5t13 38.5t3.5 51.5q0 90 -34 125t-126 35q-42 0 -72 -14.5t-45.5 -34t-23.5 -53t-9.5 -56.5t-1.5 -60
l-100 27q0 68 39 115.5t94 68t119 20.5q61 0 107 -8t83.5 -27t57 -53.5t19.5 -84.5q0 -130 -157 -159q91 0 151 -49.5t60 -134.5q0 -112 -79 -161.5t-260 -49.5q-67 0 -136.5 32t-111.5 97z" />
    <glyph glyph-name="four" unicode="4" horiz-adv-x="592" 
d="M399 114h-369v16q29 0 90 62.5t125 157.5q63 93 108.5 189t45.5 158h95v-567h78v-16h-78v-114h-95v114zM72 130h327v479q-36 -111 -139 -266.5t-188 -212.5z" />
    <glyph glyph-name="five" unicode="5" horiz-adv-x="578" 
d="M219 -15q-94 0 -174 37l5 14q75 -36 169 -36q52 0 90 11t70 38t48.5 79.5t16.5 129.5q0 245 -164 245q-32 0 -58 -7t-45 -17.5t-34.5 -30t-25.5 -35.5t-20 -45t-15 -47t-13 -52h-17l29 428h423v-94h-413l-16 -249q28 87 76 125.5t128 38.5q114 0 189 -69t75 -191
q0 -273 -324 -273z" />
    <glyph glyph-name="six" unicode="6" horiz-adv-x="662" 
d="M35 347q0 177 87 270t215 94q182 0 254 -151l-101 -25q-12 79 -48.5 120t-104.5 41q-98 0 -150 -96.5t-52 -274.5q12 84 66.5 137t137.5 53q128 0 208 -69t80 -196t-81 -196.5t-209 -69.5q-139 0 -220.5 86t-81.5 277zM339 498q-48 0 -86.5 -21t-60 -55.5t-35.5 -77.5
t-13 -88t8 -87q24 -94 64 -132.5t121 -38.5q82 0 137 65t55 187q0 124 -52.5 186t-137.5 62z" />
    <glyph glyph-name="seven" unicode="7" horiz-adv-x="578" 
d="M558 697l-407 -697h-19l352 603h-444v94h518z" />
    <glyph glyph-name="eight" unicode="8" horiz-adv-x="615" 
d="M40 188q0 84 54 135t143 64q-168 26 -168 158q0 85 67.5 125.5t166.5 40.5q63 0 113.5 -15.5t85 -54t34.5 -96.5q0 -70 -46 -108t-121 -49q91 -14 148.5 -65t57.5 -135q0 -98 -79 -151t-193 -53t-188.5 52.5t-74.5 151.5zM138 188q0 -104 41 -146.5t124 -42.5
q86 0 130 42.5t44 146.5t-44 147t-130 43q-83 0 -124 -42.5t-41 -147.5zM163 545q0 -92 32.5 -122t107.5 -30q72 0 106 31t34 121q0 91 -32 121t-108 30q-72 0 -106 -30.5t-34 -120.5z" />
    <glyph glyph-name="nine" unicode="9" horiz-adv-x="662" 
d="M35 445q0 127 81 196.5t209 69.5q139 0 220.5 -86t81.5 -277q0 -177 -87 -270t-215 -94q-180 0 -254 152l101 25q12 -80 48.5 -121t105.5 -41q98 0 149.5 96.5t51.5 274.5q-12 -83 -66.5 -136.5t-137.5 -53.5q-128 0 -208 69t-80 196zM133 445q0 -124 53 -186t137 -62
q49 0 87.5 21t60 55.5t35.5 78t13 88.5t-8 87q-25 94 -65 132.5t-121 38.5q-82 0 -137 -65.5t-55 -187.5z" />
    <glyph glyph-name="colon" unicode=":" horiz-adv-x="169" 
d="M85 390q-27 0 -46 19.5t-19 46.5t19 46t46 19t46 -19t19 -46t-19 -46.5t-46 -19.5zM20 49q0 27 19 46.5t46 19.5t46 -19.5t19 -46.5t-19 -46t-46 -19t-46 19t-19 46z" />
    <glyph glyph-name="semicolon" unicode=";" horiz-adv-x="197" 
d="M20 -72l8 14q23 -13 49 -13q18 0 33 6q29 12 41.5 42.5t5.5 62.5q-4 -24 -22 -40t-43 -16q-27 0 -46 19t-19 46t19 46t46 19q54 0 74 -41t5 -93q-9 -31 -35 -49.5t-58 -18.5q-30 0 -58 16zM33 456q0 27 19 46t46 19t46.5 -19t19.5 -46t-19.5 -46.5t-46.5 -19.5t-46 19.5
t-19 46.5z" />
    <glyph glyph-name="less" unicode="&#x3c;" horiz-adv-x="460" 
d="M400 564l-315 -282l315 -282h-25l-315 282l315 282h25z" />
    <glyph glyph-name="equal" unicode="=" horiz-adv-x="576" 
d="M556 138h-532v17h532v-17zM24 453h532v-17h-532v17z" />
    <glyph glyph-name="greater" unicode="&#x3e;" horiz-adv-x="460" 
d="M85 564l315 -282l-315 -282h-25l315 282l-315 282h25z" />
    <glyph glyph-name="question" unicode="?" horiz-adv-x="581" 
d="M149 481l-104 14q0 217 247 217q121 0 187.5 -52t66.5 -174q0 -45 -16.5 -79.5t-41 -53t-55.5 -33.5t-58 -23.5t-50 -20t-31 -24.5q-9 -15 -12 -59h-16q1 47 14 68q10 15 31.5 27t42.5 22.5t42 28.5t34 55t13 92q0 110 -36 160t-115 50q-34 0 -59 -7.5t-40 -24.5
t-24.5 -33.5t-13.5 -45.5t-5 -49.5t-1 -54.5zM208 49q0 27 19 46.5t46 19.5t46.5 -19.5t19.5 -46.5t-19.5 -46t-46.5 -19t-46 19t-19 46z" />
    <glyph glyph-name="at" unicode="@" horiz-adv-x="1017" 
d="M439 -194q-201 0 -302.5 119.5t-101.5 324.5q0 213 128 337t347 124q105 0 188 -21t148 -66t100.5 -123t35.5 -186q0 -79 -9 -139.5t-22.5 -96t-33 -58t-38.5 -30t-40 -7.5q-84 0 -124.5 34.5t-40.5 124.5v88q-8 -50 -16 -72q-15 -41 -28.5 -68t-36.5 -54t-58.5 -40
t-84.5 -13q-30 0 -54 2.5t-55 14.5t-52 32t-36 58t-15 91q0 59 33 104t97 63l-95 52q33 53 93 84t179 31q52 0 90 -8.5t70.5 -30t49.5 -64t17 -105.5v-188q0 -117 67 -117q127 0 127 312q0 380 -456 380q-210 0 -334 -117.5t-124 -327.5q0 -197 97 -312t290 -115
q154 0 232 46q17 10 29.5 21.5t15.5 17.5l4 7l15 -6q-1 -4 -6.5 -12.5t-26 -25t-50 -30.5t-86 -24.5t-127.5 -10.5zM341 172q0 -171 109 -171q72 0 119 37.5t75 134.5q21 72 28 170h-222q-49 0 -79 -41.5t-30 -129.5zM385 353q24 6 65 6h224q0 80 -25.5 111t-105.5 31
q-43 0 -73.5 -12.5t-47.5 -35.5t-25 -46.5t-12 -53.5z" />
    <glyph glyph-name="A" unicode="A" horiz-adv-x="674" 
d="M30 0l240 697h103l271 -697h-102l-111 285h-285l-98 -285h-18zM280 675l-128 -373h273z" />
    <glyph glyph-name="B" unicode="B" horiz-adv-x="668" 
d="M50 0v697h95v-197q3 16 7.5 34.5t20 52.5t37 59.5t60 45.5t86.5 20q33 0 58.5 -2.5t56.5 -12.5t51 -26.5t34 -47t14 -72.5q0 -70 -41.5 -114t-115.5 -49q106 -9 163.5 -52t57.5 -142q0 -36 -7 -64.5t-23 -48t-32 -34t-44.5 -23.5t-49 -14t-56.5 -7t-56.5 -2.5t-59.5 -0.5
h-3h-3h-3h-247zM317 379h-172v-362h159q53 0 83 2.5t62.5 11.5t48 28t26 52t10.5 83q0 104 -53 144.5t-164 40.5zM356 696q-45 0 -80.5 -17.5t-57.5 -49t-36.5 -62t-22 -71t-10 -59.5t-4.5 -43h211q116 2 116 166q0 136 -116 136z" />
    <glyph glyph-name="C" unicode="C" horiz-adv-x="765" 
d="M401 -16q-172 0 -269 101.5t-97 262.5q0 163 96.5 263.5t269.5 100.5q130 0 206.5 -54t87.5 -122l-17 -2q-7 43 -37 76t-71.5 51t-84.5 26.5t-84 8.5q-126 0 -195 -93.5t-69 -254.5q0 -163 74 -254t190 -91q39 0 68 2.5t77 12t95 35t87 64.5l12 -11q-124 -122 -339 -122z
" />
    <glyph glyph-name="D" unicode="D" horiz-adv-x="754" 
d="M50 0v697h95v-162q3 17 14 41.5t34 58t68 56.5t102 23q161 0 258.5 -94t97.5 -270q0 -157 -108 -253.5t-267 -96.5h-294zM145 14h206q115 0 193 93.5t78 242.5q0 166 -71.5 258.5t-187.5 92.5q-99 0 -158.5 -79.5t-59.5 -205.5v-402z" />
    <glyph glyph-name="E" unicode="E" horiz-adv-x="571" 
d="M50 0v697h502v-16h-407v-310h317v-16h-317v-338h407v-17h-502z" />
    <glyph glyph-name="F" unicode="F" horiz-adv-x="560" 
d="M145 0h-95v697h490v-16h-395v-311h234v-16h-234v-354z" />
    <glyph glyph-name="G" unicode="G" horiz-adv-x="805" 
d="M35 348q0 162 100.5 263t274.5 101q130 0 206.5 -54t87.5 -122l-16 -2q-7 43 -37 76t-72 51t-84.5 26.5t-84.5 8.5q-125 0 -194.5 -93.5t-69.5 -254.5q0 -163 74 -254t190 -91q54 0 96.5 19.5t67 50.5t41.5 68t23.5 74.5t9.5 68.5t2 50l-1 20h111v-354h-17v217
q-31 -124 -114 -178.5t-219 -54.5q-173 0 -274 102t-101 262z" />
    <glyph glyph-name="H" unicode="H" horiz-adv-x="674" 
d="M50 697h95v-327h384v327h95v-697h-95v354h-384v-354h-95v697z" />
    <glyph glyph-name="I" unicode="I" horiz-adv-x="195" 
d="M145 697v-697h-95v697h95z" />
    <glyph glyph-name="J" unicode="J" horiz-adv-x="395" 
d="M6 -141q-5 71 21 142.5t65 124.5t96 111l12 -12q-192 -192 -178 -365q9 -118 119 -118q108 0 108 144v811h96v-686q0 -47 -4.5 -85t-17.5 -77t-35 -65t-59 -42.5t-87 -16.5q-127 2 -136 134z" />
    <glyph glyph-name="K" unicode="K" horiz-adv-x="610" 
d="M50 697h95v-327h89q19 0 55 -2l204 329h19l-205 -331q80 -10 134 -39.5t82.5 -80t40 -108.5t11.5 -138h-109q0 40 -0.5 64.5t-3.5 62t-9 61t-16 53t-26.5 48t-39 35t-54.5 24.5t-72 8h-100v-355h-95v696z" />
    <glyph glyph-name="L" unicode="L" horiz-adv-x="571" 
d="M146 16h405v-16h-501v697h96v-681z" />
    <glyph glyph-name="M" unicode="M" horiz-adv-x="794" 
d="M50 0v697h96l251 -330l251 330h96v-697h-94v671l-253 -332l-252 332v-671h-95z" />
    <glyph glyph-name="N" unicode="N" horiz-adv-x="664" 
d="M145 0h-95v697h95q129 0 231 -76q108 -81 143 -232v308h95v-697h-95v259q-4 80 -23 145.5t-45 108t-61 74.5t-67.5 49t-69.5 27.5t-61 13t-47 2.5v-679z" />
    <glyph glyph-name="O" unicode="O" horiz-adv-x="859" 
d="M35 348q0 91 32.5 162t88 114.5t125 65.5t148.5 22t149 -22t125.5 -65.5t88 -114.5t32.5 -162q0 -92 -32 -163.5t-88 -114t-125.5 -64.5t-149.5 -22t-149 22t-125 64.5t-88 114t-32 163.5zM429 696q-59 0 -109.5 -18.5t-93 -57.5t-67 -108.5t-24.5 -163.5t24.5 -164
t67 -109t93 -57.5t109.5 -18.5t110 18.5t93.5 57.5t67 109t24.5 164t-24.5 163.5t-67 108.5t-93.5 57.5t-110 18.5z" />
    <glyph glyph-name="P" unicode="P" 
d="M50 697h95v-232q9 53 20.5 90.5t33.5 76.5t59.5 59.5t90.5 20.5q118 0 194 -55.5t76 -173.5q0 -60 -16.5 -104t-43.5 -70t-68 -42t-82.5 -21t-95.5 -5h-168v-241h-95v697zM181 551q-20 -69 -29 -142.5t-8 -112.5l1 -40h168q35 0 59.5 3t55 16t49 36.5t31.5 67t13 104.5
q0 119 -42.5 166t-129.5 47q-22 0 -37.5 -2t-36.5 -10t-36 -23t-31 -43t-27 -67z" />
    <glyph glyph-name="Q" unicode="Q" horiz-adv-x="859" 
d="M35 351q0 91 32.5 162t88 114.5t125 65.5t148.5 22t149 -22t125.5 -65.5t88 -114.5t32.5 -162q0 -134 -69 -224q52 -52 63 -113q16 -90 -31 -155t-135 -65q-60 0 -98 39t-37 99l17 -1q-1 -57 33.5 -88.5t86.5 -31.5q29 0 65 13q46 17 71 71.5t12 115.5q-12 57 -57 103
q-52 -60 -136.5 -92.5t-179.5 -34.5q-80 0 -149 22t-125 64.5t-88 114t-32 163.5zM429 699q-59 0 -109.5 -18.5t-93 -57.5t-67 -108.5t-24.5 -163.5q0 -162 67.5 -245.5t174.5 -99.5q-35 23 -35 65q0 36 22.5 61.5t58 38t68.5 18t66 5.5q78 0 136 -23q31 74 31 180
q0 94 -24.5 163.5t-67 108.5t-93.5 57.5t-110 18.5zM557 178q-28 0 -58.5 -4.5t-64 -15t-54.5 -33.5t-21 -54q0 -30 20 -49t50 -19q27 0 52 3q60 8 115.5 48.5t89.5 101.5q-55 22 -129 22z" />
    <glyph glyph-name="R" unicode="R" 
d="M50 0v697h95v-232q9 51 21 89.5t34 77t60 59.5t89 21q118 0 194 -55.5t76 -173.5q0 -192 -175 -231l171 -252h-114l-164 241h-24h-168v-241h-95zM181 551q-18 -48 -27 -122t-9 -123v-50h168q35 0 59.5 3t55 16t49 36.5t31.5 67t13 104.5q0 119 -42.5 166t-129.5 47
q-59 0 -97 -28t-71 -117z" />
    <glyph glyph-name="S" unicode="S" horiz-adv-x="675" 
d="M348 417q163 -14 225 -70t62 -164q0 -104 -68.5 -151.5t-226.5 -47.5q-154 0 -227 55t-73 182l112 17q0 -131 39 -184.5t149 -53.5q47 0 81.5 3.5t66.5 13t52 26t31.5 44t11.5 64.5q0 75 -57.5 113.5t-211.5 58.5q-140 17 -193.5 67.5t-53.5 139.5q0 91 69.5 136.5
t179.5 45.5q276 0 276 -217l-107 -14q0 40 -1.5 63t-6.5 51.5t-15.5 44t-29 30t-47.5 20.5t-69 6q-199 0 -199 -135q0 -125 231 -144z" />
    <glyph glyph-name="T" unicode="T" horiz-adv-x="670" 
d="M288 681h-288v16h670v-16h-287v-681h-95v681z" />
    <glyph glyph-name="U" unicode="U" horiz-adv-x="754" 
d="M50 282v415h95v-415q0 -111 21.5 -172.5t60.5 -83.5t107 -22q111 0 187.5 101.5t87.5 253.5v338h95v-697h-95v249q-34 -114 -107.5 -190.5t-167.5 -76.5q-157 0 -220.5 68.5t-63.5 231.5z" />
    <glyph glyph-name="V" unicode="V" horiz-adv-x="674" 
d="M30 697h102l262 -675l232 675h18l-240 -697h-103z" />
    <glyph glyph-name="W" unicode="W" horiz-adv-x="1271" 
d="M301 0l-271 697h102l262 -675l232 675h103l262 -675l233 675h17l-240 -697h-103l-262 674l-232 -674h-103z" />
    <glyph glyph-name="X" unicode="X" horiz-adv-x="722" 
d="M322 322l-282 375h119l222 -296l222 296h21l-233 -310l291 -387h-119l-231 308l-231 -308h-21z" />
    <glyph glyph-name="Y" unicode="Y" horiz-adv-x="650" 
d="M30 697h110l294 -485l168 485h18l-227 -652q-10 -29 -40 -47.5t-64 -16.5q-45 2 -74.5 31.5t-31.5 74.5q-2 43 27.5 73.5t73.5 30.5h56zM284 175q-34 0 -60 -27.5t-24 -60.5q2 -34 28 -60.5t59 -28.5q29 -2 55.5 13.5t34.5 38.5l44 125h-137z" />
    <glyph glyph-name="Z" unicode="Z" horiz-adv-x="746" 
d="M182 16h524v-16h-654l511 681h-523v16h654z" />
    <glyph glyph-name="bracketleft" unicode="[" horiz-adv-x="353" 
d="M80 0v697h223v-17h-128v-663h128v-17h-223z" />
    <glyph glyph-name="backslash" unicode="\" horiz-adv-x="257" 
d="M241 -41l-241 765h16l241 -765h-16z" />
    <glyph glyph-name="bracketright" unicode="]" horiz-adv-x="353" 
d="M178 680h-128v17h223v-697h-223v17h128v663z" />
    <glyph glyph-name="asciicircum" unicode="^" horiz-adv-x="644" 
d="M40 432l282 316l282 -316v-25l-282 316l-282 -316v25z" />
    <glyph glyph-name="underscore" unicode="_" horiz-adv-x="493" 
d="M468 -17h-443v17h443v-17z" />
    <glyph glyph-name="a" unicode="a" horiz-adv-x="619" 
d="M247 -15q-30 0 -53.5 2.5t-55.5 14t-52.5 31.5t-35.5 58t-15 91q0 60 33 105t97 62l-95 52q33 57 90.5 85t179.5 28q53 0 90 -7.5t71 -27.5t51 -61t17 -104v-314h-94v251q-8 -46 -16.5 -80t-26 -71t-40.5 -60.5t-60 -39t-85 -15.5zM246 343q-49 0 -81 -41.5t-32 -129.5
q0 -91 31.5 -131.5t81.5 -40.5q73 0 121 38t74 135q26 94 31 170h-226zM182 354q18 6 64 6h228q0 43 -3.5 65.5t-16.5 42t-40 26.5t-74 7q-142 0 -158 -147z" />
    <glyph glyph-name="b" unicode="b" horiz-adv-x="645" 
d="M50 0v763h95v-285q73 38 168 38q54 0 94.5 -5.5t80.5 -22t65.5 -44.5t41 -75.5t15.5 -112.5q0 -125 -64.5 -198.5t-173.5 -73.5q-81 0 -127.5 42t-79.5 139q-10 28 -20 90v-255h-95zM145 463q2 -170 36 -292q27 -97 73 -133.5t119 -36.5q139 0 139 256q0 77 -13 127
t-41 75t-61 34t-84 9q-93 0 -168 -39z" />
    <glyph glyph-name="c" unicode="c" horiz-adv-x="584" 
d="M314 -16q-137 0 -208 73t-71 193q0 118 73.5 191.5t205.5 73.5q98 0 152 -38.5t63 -97.5l-17 -4q-8 54 -56 89t-142 35q-76 0 -127 -65t-51 -184q0 -110 46 -179.5t132 -69.5q142 0 237 83l8 -10q-1 -1 -7.5 -7t-12.5 -10.5t-16.5 -12t-21.5 -13.5t-26 -13.5t-32.5 -13
t-37 -10.5t-43 -7.5t-48.5 -2.5z" />
    <glyph glyph-name="d" unicode="d" horiz-adv-x="645" 
d="M273 -16q-108 0 -173 73.5t-65 198.5q0 65 15.5 112.5t41 75.5t65.5 44.5t80.5 22t94.5 5.5q89 0 168 -38v285h95v-763h-95v255q-10 -62 -20 -90q-33 -97 -79.5 -139t-127.5 -42zM133 257q0 -257 139 -257q72 0 118.5 37t73.5 134q34 122 36 292q-81 39 -168 39
q-51 0 -84 -9t-61 -34t-41 -75t-13 -127z" />
    <glyph glyph-name="e" unicode="e" horiz-adv-x="584" 
d="M314 -16q-137 0 -208 73t-71 193q0 118 73.5 191.5t205.5 73.5q61 0 104.5 -17t68 -43.5t38 -70t17.5 -84t4 -97.5h-408q9 -91 54.5 -146.5t121.5 -55.5q142 0 237 83l8 -10q-1 -1 -7.5 -7t-12.5 -10.5t-16.5 -12t-21.5 -13.5t-26 -13.5t-32.5 -13t-37 -10.5t-43 -7.5
t-48.5 -2.5zM314 499q-52 0 -90 -27t-56.5 -70t-26 -89.5t-4.5 -93.5h390q0 50 -4.5 87.5t-18 75.5t-36 62.5t-61.5 39.5t-93 15z" />
    <glyph glyph-name="f" unicode="f" horiz-adv-x="497" 
d="M15 354v16h87v57q0 151 51 219q24 32 64.5 49.5t84.5 17.5q63 0 109 -33.5t51 -94.5q4 -55 -32 -95q-48 -53 -148 -53v17q95 0 136 47q31 35 27 83q-4 53 -41 82.5t-99 29.5q-107 0 -107 -145v-181h233v-16h-233v-354h-96v354h-87z" />
    <glyph glyph-name="g" unicode="g" horiz-adv-x="645" 
d="M159 20q-124 58 -124 240q0 123 63.5 190t174.5 67q81 0 127.5 -42t79.5 -138q10 -28 20 -90v253h95v-445q0 -139 -63 -198t-199 -59q-108 0 -169.5 43t-94.5 121zM272 502q-79 0 -109 -56.5t-30 -185.5q0 -256 199 -256q99 0 168 36v1q-2 169 -36 291q-27 97 -73 133.5
t-119 36.5zM332 -11q-92 0 -154 22q4 -45 19.5 -87.5t51.5 -77t84 -34.5q94 0 130 48t36 163q-71 -34 -167 -34z" />
    <glyph glyph-name="h" unicode="h" horiz-adv-x="627" 
d="M50 0v743h95v-535q9 55 23.5 102t40 97t67.5 79.5t96 29.5q50 0 87.5 -16t59.5 -42t35.5 -64.5t18 -77t4.5 -86.5v-230h-96v354q0 145 -108 145q-57 0 -100.5 -39t-66.5 -94t-38 -128.5t-19 -129t-4 -108.5h-95z" />
    <glyph glyph-name="i" unicode="i" horiz-adv-x="210" 
d="M150 0h-95v500h95v-500zM105 619q-27 0 -46 19t-19 46t19 46t46 19t46 -19t19 -46t-19 -46t-46 -19z" />
    <glyph glyph-name="j" unicode="j" horiz-adv-x="405" 
d="M6 -144q-8 104 42 196.5t140 182.5l12 -12q-192 -193 -178 -366q4 -60 33.5 -88.5t85.5 -29.5q108 2 108 145v616h96v-492q0 -47 -4.5 -85t-17.5 -76.5t-35 -64.5t-59 -42.5t-87 -16.5q-127 0 -136 133zM235 678q0 27 19 46t46 19t46 -19t19 -46t-19 -46t-46 -19t-46 19
t-19 46z" />
    <glyph glyph-name="k" unicode="k" horiz-adv-x="533" 
d="M50 0v743h95v-471q118 0 149 -5l147 232h19l-149 -235q103 -21 145 -87.5t42 -176.5h-98q0 33 -0.5 49.5t-2 45.5t-6.5 45t-12.5 38t-20 34t-30 24.5t-42.5 17.5t-56 5h-85v-259h-95z" />
    <glyph glyph-name="l" unicode="l" horiz-adv-x="195" 
d="M50 743h95v-743h-95v743z" />
    <glyph glyph-name="m" unicode="m" horiz-adv-x="1059" 
d="M50 500h95v-274q9 56 34.5 120.5t57.5 102.5q55 66 135 66q99 0 149.5 -59.5t53.5 -160.5l2 -66q7 48 23.5 95t43 91.5t68.5 72t92 27.5q62 0 104.5 -23t63.5 -66t29 -89t8 -107v-230h-96v354q0 145 -109 145q-58 0 -101.5 -39t-66.5 -94t-37 -129t-18 -128.5t-4 -108.5
h-96v354q0 145 -108 145q-48 0 -86.5 -26t-62 -71.5t-40.5 -97t-25 -111.5t-11 -105t-3 -88h-95v500z" />
    <glyph glyph-name="n" unicode="n" horiz-adv-x="627" 
d="M50 0v500h95v-292q9 55 23.5 102t40 97t67.5 79.5t96 29.5q50 0 87.5 -16t59.5 -42t35.5 -64.5t18 -77t4.5 -86.5v-230h-96v354q0 145 -108 145q-57 0 -100.5 -39t-66.5 -94t-38 -128.5t-19 -129t-4 -108.5h-95z" />
    <glyph glyph-name="o" unicode="o" 
d="M35 250q0 127 82 196.5t210 69.5t210 -69.5t82 -196.5t-82 -196.5t-210 -69.5t-210 69.5t-82 196.5zM327 501q-194 0 -194 -251q0 -129 46.5 -190t147.5 -61q100 0 147 61.5t47 189.5q0 251 -194 251z" />
    <glyph glyph-name="p" unicode="p" horiz-adv-x="645" 
d="M145 -261h-95v761h95v-253q10 55 20 89q31 96 78 138.5t129 42.5q109 0 173.5 -73.5t64.5 -198.5q0 -65 -15.5 -112.5t-41 -75.5t-65.5 -44.5t-80.5 -22t-94.5 -5.5q-89 0 -168 38v-284zM181 331q-34 -119 -36 -293q81 -39 168 -39q51 0 84 9t61 34.5t41 75t13 126.5
q0 257 -139 257q-72 0 -118.5 -37t-73.5 -133z" />
    <glyph glyph-name="q" unicode="q" horiz-adv-x="645" 
d="M35 245q0 125 64.5 198.5t173.5 73.5q81 0 127.5 -42t79.5 -139q9 -27 20 -89v253h95v-761h-95v284q-79 -38 -168 -38q-68 0 -116.5 10t-92 36.5t-66 80t-22.5 133.5zM133 244q0 -77 13 -126.5t41 -75t61 -34.5t84 -9q87 0 168 39q-2 169 -36 293q-27 96 -73.5 133
t-118.5 37q-139 0 -139 -257z" />
    <glyph glyph-name="r" unicode="r" horiz-adv-x="491" 
d="M50 500h95v-292q9 55 23.5 102t40 97t67.5 79.5t96 29.5q50 0 77 -26.5t27 -61.5q0 -40 -27 -68.5t-68 -40.5l-5 16q83 27 83 93q0 28 -22.5 49.5t-63.5 21.5q-57 0 -100.5 -39t-66.5 -94t-38 -128.5t-19 -129t-4 -108.5h-95v500z" />
    <glyph glyph-name="s" unicode="s" horiz-adv-x="545" 
d="M394 291q111 -39 111 -149q0 -86 -59 -121t-169 -35q-123 0 -180 41.5t-57 132.5l96 14q0 -101 29.5 -137t125.5 -36q94 0 124.5 25.5t30.5 68.5q0 63 -42 90t-137 43q-112 18 -160 49.5t-48 96.5q0 67 47 103t138 36q220 0 220 -212zM267 319q57 -9 91 -18l16 -4
q0 45 -1.5 68.5t-8.5 54t-21 44.5t-41.5 24.5t-67.5 10.5q-66 0 -97.5 -23t-31.5 -61q0 -44 37.5 -62.5t124.5 -33.5z" />
    <glyph glyph-name="t" unicode="t" horiz-adv-x="514" 
d="M101 484h-86v16h86v197h96v-197h233v-16h-233v-339q0 -145 109 -145q135 0 192 207l16 -5q-60 -218 -208 -218q-37 0 -66.5 5.5t-50.5 19t-36 26.5t-24.5 37t-15 41.5t-8 49.5t-3 50.5t-0.5 54.5v2z" />
    <glyph glyph-name="u" unicode="u" horiz-adv-x="628" 
d="M255 -16q-50 0 -87.5 16t-59.5 42t-35.5 64.5t-18 77t-4.5 86.5v230h96v-355q0 -145 108 -145q48 0 86.5 26.5t62.5 71.5t40.5 97t25 112t11.5 105t3 88h94l1 -500h-95v292q-7 -42 -17 -79t-28.5 -81t-42 -75t-60 -52t-80.5 -21z" />
    <glyph glyph-name="v" unicode="v" horiz-adv-x="526" 
d="M30 500h102l185 -476l161 476h18l-170 -500h-102z" />
    <glyph glyph-name="w" unicode="w" horiz-adv-x="974" 
d="M224 0l-194 500h102l185 -476l161 476h102l184 -476l162 476h18l-170 -500h-102l-185 476l-161 -476h-102z" />
    <glyph glyph-name="x" unicode="x" horiz-adv-x="553" 
d="M233 230l-203 270h119l143 -191l143 191h21l-154 -205l221 -295h-118l-162 216l-162 -216h-21z" />
    <glyph glyph-name="y" unicode="y" horiz-adv-x="625" 
d="M337 0l-307 500h109l277 -455q26 75 65.5 185.5t64.5 181t31 88.5h18q-144 -395 -233 -657q-10 -28 -37 -45.5t-62 -17.5q-49 0 -79.5 30t-31.5 80q-1 45 32 77.5t79 32.5h74zM169 -110q0 -33 25.5 -63t66.5 -30q29 0 53.5 14.5t32.5 37.5q4 13 20.5 59t26.5 76h-131
q-39 0 -66.5 -27.5t-27.5 -66.5z" />
    <glyph glyph-name="z" unicode="z" horiz-adv-x="577" 
d="M535 500l-363 -484h375v-16h-505l363 484h-375v16h505z" />
    <glyph glyph-name="braceleft" unicode="{" horiz-adv-x="367" 
d="M15 340v16l71 15q7 2 7 9q3 62 11 109.5t25.5 91t45.5 71t71 44t101 16.5v-15q-40 0 -67 -14t-41.5 -29t-22 -56.5t-8.5 -64.5t-2 -85q-1 -31 -1 -47q0 -19 -17 -22l-129 -31l129 -31q17 -3 17 -22q0 -18 0.5 -50t0.5 -47.5t1.5 -42t4 -39.5t7 -32.5t12 -29.5t18 -22.5
t24.5 -18t32.5 -9.5t41.5 -4v-15q-70 0 -119.5 24t-77 70.5t-40.5 103t-17 133.5q0 7 -7 9z" />
    <glyph glyph-name="bar" unicode="|" horiz-adv-x="137" 
d="M77 775v-871h-17v871h17z" />
    <glyph glyph-name="braceright" unicode="}" horiz-adv-x="367" 
d="M20 697v15q139 0 196.5 -86.5t57.5 -245.5q0 -7 7 -9l71 -15v-16l-71 -15q-7 -2 -7 -9q-4 -77 -17 -133.5t-40.5 -103t-77 -70.5t-119.5 -24v15q30 0 53.5 6.5t38.5 18.5t25.5 29t15.5 39t7.5 48t2.5 55.5v62.5v12.5v11.5v13q0 18 17 21l128 31l-128 31q-17 3 -17 22
q0 15 -1 45q0 36 -0.5 53.5t-2.5 47.5t-6 44t-10.5 35t-17 31t-25 21t-34.5 15t-46 4z" />
    <glyph glyph-name="asciitilde" unicode="~" horiz-adv-x="447" 
d="M85 275l12 12q26 -24 61 -24q34 0 60 24q29 29 72 29t72 -29l-12 -12q-25 25 -60 25q-34 0 -61 -25q-31 -29 -72 -29q-40 0 -72 29z" />
    <glyph glyph-name="sterling" unicode="&#xa3;" horiz-adv-x="464" 
d="M66 492q-30 98 8 160.5t133 62.5q53 0 74 -53q22 -53 3 -129q-20 -81 -77 -138l-12 12q36 36 58 85t23.5 90t-10.5 74q-20 44 -60 44q-58 1 -80.5 -29t0.5 -104q37 -121 32 -204h127v-17h-128q-2 -23 -11 -64t-9 -63h309v-16h-399q0 26 13.5 73.5t17.5 69.5h-51v17h53
q7 61 -14 129z" />
    <glyph glyph-name="guillemotleft" unicode="&#xab;" horiz-adv-x="603" 
d="M538 0l-315 282l315 282h25l-316 -282l316 -282h-25zM40 282l315 282h25l-315 -282l315 -282h-25z" />
    <glyph glyph-name="macron" unicode="&#xaf;" horiz-adv-x="493" 
d="M468 680h-443v17h443v-17z" />
    <glyph glyph-name="degree" unicode="&#xb0;" horiz-adv-x="218" 
d="M10 679q0 41 29 70t70 29t70 -29t29 -70t-29 -70t-70 -29t-70 29t-29 70zM109 762q-34 0 -58 -24.5t-24 -58.5t24 -58.5t58 -24.5q35 0 59 24t24 59t-24 59t-59 24z" />
    <glyph glyph-name="plusminus" unicode="&#xb1;" horiz-adv-x="529" 
d="M61 305h195v195h17v-195h195v-17h-195v-195h-17v195h-195v17zM57 17h411v-17h-411v17z" />
    <glyph glyph-name="periodcentered" unicode="&#xb7;" horiz-adv-x="276" 
d="M138 223q-20 0 -34 14t-14 34q0 19 14 33.5t34 14.5t34 -14t14 -34t-14 -34t-34 -14z" />
    <glyph glyph-name="guillemotright" unicode="&#xbb;" horiz-adv-x="603" 
d="M223 564h24l316 -282l-316 -282h-24l315 282zM65 0h-25l315 282l-315 282h25l315 -282z" />
    <glyph glyph-name="Agrave" unicode="&#xc0;" horiz-adv-x="674" 
d="M270 697h103l271 -697h-102l-111 285h-285l-98 -285h-18zM152 302h273l-145 372zM241 889l47 -139h-19l-47 139h19z" />
    <glyph glyph-name="Aacute" unicode="&#xc1;" horiz-adv-x="674" 
d="M270 697h103l271 -697h-102l-111 285h-285l-98 -285h-18zM152 302h273l-145 372zM289 750l47 139h19l-47 -139h-19z" />
    <glyph glyph-name="Acircumflex" unicode="&#xc2;" horiz-adv-x="674" 
d="M47 0h-17l240 697h103l271 -697h-102l-110 285h-286zM280 675l-128 -373h273zM205 757l109 105l109 -105l-12 -12l-97 94l-97 -94z" />
    <glyph glyph-name="Atilde" unicode="&#xc3;" horiz-adv-x="674" 
d="M30 0l240 697h103l271 -697h-102l-110 285h-286l-98 -285h-18zM280 675l-128 -373h273zM170 795l12 12q27 -25 61 -25q35 0 60 25q29 29 72 29t72 -29l-12 -12q-25 25 -60 25q-36 0 -61 -25q-29 -29 -72 -29q-42 0 -72 29z" />
    <glyph glyph-name="Adieresis" unicode="&#xc4;" horiz-adv-x="674" 
d="M30 0l240 697h103l271 -697h-102l-111 285h-285l-98 -285h-18zM280 675l-128 -373h273zM264 739q-20 0 -34 14t-14 34t14 34t34 14t34 -14.5t14 -33.5q0 -20 -14 -34t-34 -14zM380 739q-20 0 -34 14t-14 34t14 34t34 14t34 -14t14 -34t-14 -34t-34 -14z" />
    <glyph glyph-name="Aring" unicode="&#xc5;" horiz-adv-x="674" 
d="M47 0h-17l239 694q-49 29 -49 86q0 41 29.5 70t70.5 29t70 -29t29 -70q0 -54 -45 -84l270 -696h-102l-110 285h-286zM280 675l-128 -373h273zM320 863q-34 0 -58.5 -24.5t-24.5 -58.5q0 -32 21.5 -55.5t52.5 -27.5h17q32 4 53.5 27.5t21.5 55.5q0 34 -24.5 58.5
t-58.5 24.5z" />
    <glyph glyph-name="AE" unicode="&#xc6;" horiz-adv-x="860" 
d="M30 0l297 697h513v-15h-406v-342h317v-16h-317v-308h406v-16h-501v324h-153l-138 -324h-18zM337 681l-144 -341h146v341h-2z" />
    <glyph glyph-name="Ccedilla" unicode="&#xc7;" horiz-adv-x="766" 
d="M35 349q0 163 96.5 263.5t269.5 100.5q130 0 207 -53.5t88 -121.5l-17 -3q-4 22 -23 53t-48 52q-80 57 -207 57q-125 0 -194.5 -93.5t-69.5 -254.5q0 -163 74 -254.5t190 -91.5q39 0 68 2.5t77.5 12t95.5 35t87 65.5l12 -12q-113 -111 -309 -121q-26 -1 -34 -23
q30 -4 49.5 -27.5t17.5 -54.5t-24.5 -51.5t-52.5 -20.5q-32 0 -54.5 22.5t-22.5 54.5h16q0 -26 19.5 -44.5t45.5 -16.5q23 2 39.5 18.5t17.5 38.5q2 30 -18 47.5t-51 17.5q0 26 14 39q-169 2 -264 103.5t-95 260.5z" />
    <glyph glyph-name="Egrave" unicode="&#xc8;" horiz-adv-x="571" 
d="M551 681h-406v-310h317v-16h-317v-338h406v-17h-501v697h501v-16zM241 889l47 -139h-19l-47 139h19z" />
    <glyph glyph-name="Eacute" unicode="&#xc9;" horiz-adv-x="571" 
d="M551 681h-406v-310h317v-16h-317v-338h406v-17h-501v697h501v-16zM289 750l47 139h19l-47 -139h-19z" />
    <glyph glyph-name="Ecircumflex" unicode="&#xca;" horiz-adv-x="571" 
d="M50 0v697h502v-16h-407v-310h317v-16h-317v-338h407v-17h-502zM193 757l109 105l109 -105l-12 -12l-97 94l-97 -94z" />
    <glyph glyph-name="Edieresis" unicode="&#xcb;" horiz-adv-x="571" 
d="M552 0h-502v697h502v-16h-407v-310h317v-16h-317v-338h407v-17zM388 739q-20 0 -34 14t-14 34t14 34t34 14t34 -14.5t14 -33.5q0 -20 -14 -34t-34 -14zM239 739q-20 0 -34 14t-14 34q0 19 14.5 33.5t33.5 14.5q20 0 34 -14t14 -34t-14 -34t-34 -14z" />
    <glyph glyph-name="Igrave" unicode="&#xcc;" horiz-adv-x="205" 
d="M155 697v-697h-95v697h95zM69 889l47 -139h-19l-47 139h19z" />
    <glyph glyph-name="Iacute" unicode="&#xcd;" horiz-adv-x="204" 
d="M145 697v-697h-95v697h95zM88 750l48 139h18l-47 -139h-19z" />
    <glyph glyph-name="Icircumflex" unicode="&#xce;" horiz-adv-x="317" 
d="M206 697v-697h-95v697h95zM159 844l-97 -94l-12 12l109 105l108 -105l-11 -12z" />
    <glyph glyph-name="Idieresis" unicode="&#xcf;" horiz-adv-x="232" 
d="M69 697h95v-697h-95v697zM174 739q-20 0 -34 14t-14 34q0 19 14 33.5t34 14.5t34 -14t14 -34t-14 -34t-34 -14zM58 739q-20 0 -34 14t-14 34q0 19 14 33.5t34 14.5t34 -14t14 -34t-14 -34t-34 -14z" />
    <glyph glyph-name="Eth" unicode="&#xd0;" horiz-adv-x="805" 
d="M15 406v16h86v275h94v-162q2 12 8.5 30t23.5 45t40 49.5t61.5 38.5t85.5 16q161 0 258.5 -94t97.5 -270q0 -157 -108 -253.5t-267 -96.5h-294v406h-86zM195 14h207q114 0 192.5 93.5t78.5 242.5q0 165 -72 258t-187 93q-98 0 -157.5 -77.5t-61.5 -201.5h186v-16h-186
v-392z" />
    <glyph glyph-name="Ntilde" unicode="&#xd1;" horiz-adv-x="664" 
d="M145 0h-95v697h95q129 0 231 -76q108 -81 143 -232v308h95v-697h-95v259q-4 80 -23 145.5t-45 108t-61 74.5t-67.5 49t-69.5 27.5t-61 13t-47 2.5v-679zM262 768q-42 0 -71 29l11 12q27 -25 61 -25q35 0 60 25q29 29 72 29t72 -29l-12 -12q-25 25 -60 25q-36 0 -61 -25
q-29 -29 -72 -29z" />
    <glyph glyph-name="Ograve" unicode="&#xd2;" horiz-adv-x="859" 
d="M429 712q108 -1 195 -38.5t143.5 -121.5t56.5 -204q0 -92 -32 -163.5t-88 -114t-125.5 -64.5t-149.5 -22t-149 22t-125 64.5t-88 114t-32 163.5q0 91 32.5 162t88 114t125 65.5t148.5 22.5zM429 -1q59 0 110 18.5t93.5 57.5t67 109t24.5 164t-24.5 163.5t-67 108.5
t-93.5 57.5t-110 18.5t-109.5 -18.5t-93 -57.5t-67 -108.5t-24.5 -163.5t24.5 -164t67 -109t93 -57.5t109.5 -18.5zM395 889l47 -139h-19l-47 139h19z" />
    <glyph glyph-name="Oacute" unicode="&#xd3;" horiz-adv-x="859" 
d="M429 712q108 -1 195 -38.5t143.5 -121.5t56.5 -204q0 -92 -32 -163.5t-88 -114t-125.5 -64.5t-149.5 -22t-149 22t-125 64.5t-88 114t-32 163.5q0 91 32.5 162t88 114t125 65.5t148.5 22.5zM429 -1q59 0 110 18.5t93.5 57.5t67 109t24.5 164t-24.5 163.5t-67 108.5
t-93.5 57.5t-110 18.5t-109.5 -18.5t-93 -57.5t-67 -108.5t-24.5 -163.5t24.5 -164t67 -109t93 -57.5t109.5 -18.5zM417 750l47 139h19l-48 -139h-18z" />
    <glyph glyph-name="Ocircumflex" unicode="&#xd4;" horiz-adv-x="859" 
d="M35 348q0 91 32.5 162t88 114.5t125 65.5t148.5 22t149 -22t125.5 -65.5t88 -114.5t32.5 -162q0 -92 -32 -163.5t-88 -114t-125.5 -64.5t-149.5 -22t-149 22t-125 64.5t-88 114t-32 163.5zM135 348q0 -94 24.5 -164t67 -109t93 -57.5t109.5 -18.5t110 18.5t93.5 57.5
t67 109t24.5 164t-24.5 163.5t-67 108.5t-93.5 57.5t-110 18.5t-109.5 -18.5t-93 -57.5t-67 -108.5t-24.5 -163.5zM325 751l-11 12l109 105l108 -105l-11 -12l-97 94z" />
    <glyph glyph-name="Otilde" unicode="&#xd5;" horiz-adv-x="859" 
d="M35 348q0 91 32.5 162t88 114.5t125 65.5t148.5 22t149 -22t125.5 -65.5t88 -114.5t32.5 -162q0 -92 -32 -163.5t-88 -114t-125.5 -64.5t-149.5 -22t-149 22t-125 64.5t-88 114t-32 163.5zM429 696q-59 0 -109.5 -18.5t-93 -57.5t-67 -108.5t-24.5 -163.5t24.5 -164
t67 -109t93 -57.5t109.5 -18.5t110 18.5t93.5 57.5t67 109t24.5 164t-24.5 163.5t-67 108.5t-93.5 57.5t-110 18.5zM357 768q-42 0 -72 29l12 12q27 -25 61 -25q35 0 60 25q29 29 72 29t72 -29l-12 -12q-25 25 -60 25q-36 0 -61 -25q-29 -29 -72 -29z" />
    <glyph glyph-name="Odieresis" unicode="&#xd6;" horiz-adv-x="859" 
d="M35 348q0 91 32.5 162t88 114.5t125 65.5t148.5 22t149 -22t125.5 -65.5t88 -114.5t32.5 -162q0 -92 -32 -163.5t-88 -114t-125.5 -64.5t-149.5 -22t-149 22t-125 64.5t-88 114t-32 163.5zM429 696q-59 0 -109.5 -18.5t-93 -57.5t-67 -108.5t-24.5 -163.5t24.5 -164
t67 -109t93 -57.5t109.5 -18.5t110 18.5t93.5 57.5t67 109t24.5 164t-24.5 163.5t-67 108.5t-93.5 57.5t-110 18.5zM371 739q-20 0 -34 14t-14 34q0 19 14.5 33.5t33.5 14.5q20 0 34 -14t14 -34t-14 -34t-34 -14zM487 739q-20 0 -34 14t-14 34q0 19 14.5 33.5t33.5 14.5
q20 0 34 -14t14 -34t-14 -34t-34 -14z" />
    <glyph glyph-name="multiply" unicode="&#xd7;" horiz-adv-x="529" 
d="M115 159l138 138l-138 138l12 12l138 -138l138 138l12 -12l-139 -138l139 -138l-12 -12l-138 138l-138 -138z" />
    <glyph glyph-name="Oslash" unicode="&#xd8;" horiz-adv-x="859" 
d="M35 348q0 91 32.5 162t88 114t125 65.5t148.5 22.5q53 0 106 -11l7 22h16l-8 -25q123 -30 198.5 -118.5t75.5 -231.5q0 -92 -32 -163.5t-88 -114t-125.5 -64.5t-149.5 -22q-54 0 -100 10l-12 -37h-16l13 40q-125 28 -202 116t-77 235zM135 348q0 -139 50.5 -220
t134.5 -111l209 664q-48 15 -100 15q-59 0 -109.5 -18.5t-93 -57.5t-67 -108.5t-24.5 -163.5zM334 12q45 -13 95 -13q59 0 110 18.5t93.5 57.5t67 109t24.5 164q0 136 -49 216.5t-132 111.5z" />
    <glyph glyph-name="Ugrave" unicode="&#xd9;" horiz-adv-x="754" 
d="M609 697h95v-697h-95v249q-34 -114 -107.5 -190.5t-167.5 -76.5q-157 0 -220.5 68.5t-63.5 231.5v415h95v-415q0 -111 21.5 -172.5t60.5 -83.5t107 -22q111 0 187.5 101.5t87.5 253.5v338zM363 889l47 -139h-19l-47 139h19z" />
    <glyph glyph-name="Uacute" unicode="&#xda;" horiz-adv-x="754" 
d="M609 697h95v-697h-95v249q-34 -114 -107.5 -190.5t-167.5 -76.5q-157 0 -220.5 68.5t-63.5 231.5v415h95v-415q0 -111 21.5 -172.5t60.5 -83.5t107 -22q111 0 187.5 101.5t87.5 253.5v338zM344 750l47 139h19l-47 -139h-19z" />
    <glyph glyph-name="Ucircumflex" unicode="&#xdb;" horiz-adv-x="754" 
d="M50 282v415h95v-415q0 -111 21.5 -172.5t60.5 -83.5t107 -22q111 0 187.5 101.5t87.5 253.5v338h95v-697h-95v249q-34 -114 -107.5 -190.5t-167.5 -76.5q-157 0 -220.5 68.5t-63.5 231.5zM269 762l108 105l109 -105l-12 -12l-97 94l-97 -94z" />
    <glyph glyph-name="Udieresis" unicode="&#xdc;" horiz-adv-x="754" 
d="M50 697h95v-415q0 -111 21.5 -172.5t60.5 -83.5t107 -22q111 0 187.5 101.5t87.5 253.5v338h95v-697h-95v249q-34 -114 -107.5 -190.5t-167.5 -76.5q-157 0 -220.5 68.5t-63.5 231.5v415zM435 739q-20 0 -34 14t-14 34q0 19 14.5 33.5t33.5 14.5q20 0 34 -14t14 -34
t-14 -34t-34 -14zM319 739q-20 0 -34 14t-14 34t14 34t34 14t34 -14t14 -34t-14 -34t-34 -14z" />
    <glyph glyph-name="Yacute" unicode="&#xdd;" horiz-adv-x="650" 
d="M602 697h18l-227 -652q-10 -29 -40 -47.5t-64 -16.5q-45 2 -74.5 31t-31.5 74q-2 44 27.5 74.5t73.5 30.5h56l-310 506h110l294 -485zM377 50l44 125h-137q-34 0 -60 -27.5t-24 -60.5q2 -34 28 -60.5t59 -28.5q29 -2 55.5 13.5t34.5 38.5zM327 750l47 139h19l-48 -139
h-18z" />
    <glyph glyph-name="Thorn" unicode="&#xde;" horiz-adv-x="629" 
d="M145 0h-95l2 697h95l-1 -61h75q163 -1 268 -74t105 -212t-105 -213t-269 -75h-75v-62zM145 79h81q118 0 194.5 70t76.5 201t-76.5 200t-194.5 69h-80z" />
    <glyph glyph-name="germandbls" unicode="&#xdf;" horiz-adv-x="541" 
d="M50 0v428q0 48 4.5 86t18 76.5t35.5 64.5t59 42t87 17q56 0 106.5 -41.5t50.5 -109.5q0 -28 -8.5 -51.5t-16.5 -35t-23 -28.5q-28 -32 -28 -54q0 -11 11.5 -20.5t36.5 -23.5q28 -16 42.5 -26.5t37 -33t33 -54t10.5 -72.5q0 -83 -48 -132t-129 -49q-41 0 -84 16l7 16
q38 -15 77 -15q75 0 118 44.5t43 119.5q0 30 -8 56t-17 41t-29 32t-29 22.5t-32 19.5q-20 12 -29 18t-18 17.5t-9 23.5q0 5 1 10t1.5 9t3.5 9t4 7.5t5 8t5 6.5t6 7.5t6 7.5q15 18 21.5 26.5t14.5 30.5t8 47q0 64 -47 99t-94 35q-108 0 -108 -145v-552h-96z" />
    <glyph glyph-name="agrave" unicode="&#xe0;" horiz-adv-x="619" 
d="M295 698l47 -139h-19l-47 139h19zM340 514q53 0 90 -7.5t71 -27.5t51 -61t17 -104v-314h-94v251q-11 -66 -20 -92q-14 -41 -28 -68t-37.5 -53.5t-59 -39.5t-83.5 -13q-30 0 -53.5 2.5t-55.5 14t-52.5 31.5t-35.5 58t-15 91q0 60 33 105t97 62l-95 52q33 57 90.5 85
t179.5 28zM441 173q26 94 31 170h-226q-49 0 -81 -41.5t-32 -129.5q0 -91 31.5 -131.5t81.5 -40.5q72 0 120 38t75 135zM246 360h228q0 43 -3.5 65.5t-16.5 42t-40 26.5t-74 7q-142 0 -158 -147q18 6 64 6z" />
    <glyph glyph-name="aacute" unicode="&#xe1;" horiz-adv-x="619" 
d="M329 558l47 139h19l-48 -139h-18zM340 514q53 0 90 -7.5t71 -27.5t51 -61t17 -104v-314h-94v251q-11 -66 -20 -92q-14 -41 -28 -68t-37.5 -53.5t-59 -39.5t-83.5 -13q-30 0 -53.5 2.5t-55.5 14t-52.5 31.5t-35.5 58t-15 91q0 60 33 105t97 62l-95 52q33 57 90.5 85
t179.5 28zM441 173q26 94 31 170h-226q-49 0 -81 -41.5t-32 -129.5q0 -91 31.5 -131.5t81.5 -40.5q72 0 120 38t75 135zM246 360h228q0 43 -3.5 65.5t-16.5 42t-40 26.5t-74 7q-142 0 -158 -147q18 6 64 6z" />
    <glyph glyph-name="acircumflex" unicode="&#xe2;" horiz-adv-x="619" 
d="M247 -15q-30 0 -53.5 2.5t-55.5 14t-52.5 31.5t-35.5 58t-15 91q0 60 33 105t97 62l-95 52q33 57 90.5 85t179.5 28q53 0 90 -7.5t71 -27.5t51 -61t17 -104v-314h-94v251q-8 -46 -16.5 -80t-26 -71t-40.5 -60.5t-60 -39t-85 -15.5zM246 343q-49 0 -81 -41.5t-32 -129.5
q0 -91 31.5 -131.5t81.5 -40.5q73 0 121 38t74 135q26 94 31 170h-226zM182 354q18 6 64 6h228q0 43 -3.5 65.5t-16.5 42t-40 26.5t-74 7q-142 0 -158 -147zM242 586l-12 12l109 105l109 -105l-12 -12l-97 94z" />
    <glyph glyph-name="atilde" unicode="&#xe3;" horiz-adv-x="619" 
d="M35 182q0 60 33 105t97 62l-95 52q33 57 90.5 85t179.5 28q53 0 90 -7.5t71 -27.5t51 -61t17 -104v-314h-94v251q-8 -46 -16.5 -80t-26 -71t-40.5 -60.5t-60 -39t-85 -15.5q-30 0 -53.5 2.5t-55.5 14t-52.5 31.5t-35.5 58t-15 91zM133 172q0 -91 31.5 -131.5t81.5 -40.5
q73 0 121 38t74 135q26 94 31 170h-226q-49 0 -81 -41.5t-32 -129.5zM182 354q18 6 64 6h228q0 43 -3.5 65.5t-16.5 42t-40 26.5t-74 7q-142 0 -158 -147zM249 603q-43 0 -72 29l12 12q27 -25 61 -25q35 0 60 25q29 29 72 29t72 -29l-12 -12q-25 25 -60 25q-36 0 -61 -25
q-29 -29 -72 -29z" />
    <glyph glyph-name="adieresis" unicode="&#xe4;" horiz-adv-x="619" 
d="M247 -15q-30 0 -53.5 2.5t-55.5 14t-52.5 31.5t-35.5 58t-15 91q0 60 33 105t97 62l-95 52q33 57 90.5 85t179.5 28q53 0 90 -7.5t71 -27.5t51 -61t17 -104v-314h-94v251q-8 -46 -16.5 -80t-26 -71t-40.5 -60.5t-60 -39t-85 -15.5zM246 343q-49 0 -81 -41.5t-32 -129.5
q0 -91 31.5 -131.5t81.5 -40.5q73 0 121 38t74 135q26 94 31 170h-226zM340 501q-142 0 -158 -147q18 6 64 6h228q0 43 -3.5 65.5t-16.5 42t-40 26.5t-74 7zM224 644q0 20 14 34t34 14t34 -14t14 -34t-14 -34t-34 -14t-34 14t-14 34zM340 644q0 20 14 34t34 14t34 -14
t14 -34t-14 -34t-34 -14t-34 14t-14 34z" />
    <glyph glyph-name="aring" unicode="&#xe5;" horiz-adv-x="619" 
d="M247 -15q-30 0 -53.5 2.5t-55.5 14t-52.5 31.5t-35.5 58t-15 91q0 60 33 105t97 62l-95 52q33 57 90.5 85t179.5 28q53 0 90 -7.5t71 -27.5t51 -61t17 -104v-314h-94v251q-8 -46 -16.5 -80t-26 -71t-40.5 -60.5t-60 -39t-85 -15.5zM246 343q-49 0 -81 -41.5t-32 -129.5
q0 -91 31.5 -131.5t81.5 -40.5q73 0 121 38t74 135q26 94 31 170h-226zM182 354q18 6 64 6h228q0 43 -3.5 65.5t-16.5 42t-40 26.5t-74 7q-142 0 -158 -147zM336 580q-41 0 -70 29t-29 70t29 70t70 29t70 -29t29 -70t-29 -70t-70 -29zM336 762q-34 0 -58.5 -24.5
t-24.5 -58.5t24.5 -58.5t58.5 -24.5t58.5 24t24.5 59t-24.5 59t-58.5 24z" />
    <glyph glyph-name="ae" unicode="&#xe6;" horiz-adv-x="1011" 
d="M35 181q0 59 33.5 104t96.5 64l-94 52q18 48 83 79.5t186 31.5q171 0 223 -80q54 83 177 83q121 0 176.5 -68.5t55.5 -173.5v-71h-407q9 -90 54.5 -145.5t120.5 -55.5q144 0 236 83l10 -9q-1 0 -14 -11t-24 -19t-33.5 -20t-45.5 -20t-57.5 -14t-71.5 -6q-125 0 -194.5 54
t-79.5 159q-1 -3 -5 -17t-5 -21q-15 -42 -29 -68.5t-37.5 -53.5t-58.5 -40t-83 -13q-31 0 -55 2.5t-55.5 14t-52 31.5t-35.5 58t-15 90zM563 219h390v54q0 99 -53.5 162t-159.5 63q-91 0 -134 -61.5t-43 -186.5v-31zM134 172q0 -171 113 -171q72 0 119 37.5t75 134.5
q21 72 28 170h-222q-50 -1 -81.5 -42.5t-31.5 -128.5zM340 500q-44 0 -75 -13.5t-46.5 -38t-22 -45.5t-10.5 -49q47 5 62 5h222q0 30 -1 46t-5 35t-12 28t-22.5 17.5t-36 11.5t-53.5 3z" />
    <glyph glyph-name="ccedilla" unicode="&#xe7;" horiz-adv-x="585" 
d="M35 250q0 118 73.5 191.5t205.5 73.5q98 0 152 -38.5t63 -97.5l-16 -4q-9 55 -56.5 89.5t-142.5 34.5q-76 0 -127 -65t-51 -184q0 -110 46 -179.5t132 -69.5q142 0 238 83l8 -10l-6 -6q-6 -5 -9.5 -8t-12.5 -10t-16.5 -11.5t-19.5 -11.5t-23 -12t-26.5 -10.5t-31 -9
t-34 -6.5t-38.5 -4q-28 -1 -36 -24q31 -4 50.5 -27.5t17.5 -54.5q-2 -29 -22.5 -49.5t-49.5 -22.5q-34 -2 -58.5 21t-24.5 57h17q0 -27 19.5 -45t45.5 -16q22 2 38 18t18 38q2 31 -18 48t-51 17q0 27 15 39q-132 3 -200.5 75.5t-68.5 190.5z" />
    <glyph glyph-name="egrave" unicode="&#xe8;" horiz-adv-x="584" 
d="M551 84l8 -10q-1 -1 -7.5 -7t-12.5 -10.5t-16.5 -12t-21.5 -13.5t-26 -13.5t-32.5 -13t-37 -10.5t-43 -7.5t-48.5 -2.5q-137 0 -208 73t-71 193q0 118 73.5 191.5t205.5 73.5q61 0 104.5 -17t68 -43.5t38 -70t17.5 -84t4 -97.5h-408q9 -91 54.5 -146.5t121.5 -55.5
q142 0 237 83zM314 499q-52 0 -90 -27t-56.5 -70t-26 -89.5t-4.5 -93.5h390q0 50 -4.5 87.5t-18 75.5t-36 62.5t-61.5 39.5t-93 15zM295 697l48 -139h-19l-47 139h18z" />
    <glyph glyph-name="eacute" unicode="&#xe9;" horiz-adv-x="584" 
d="M551 84l8 -10q-1 -1 -7.5 -7t-12.5 -10.5t-16.5 -12t-21.5 -13.5t-26 -13.5t-32.5 -13t-37 -10.5t-43 -7.5t-48.5 -2.5q-137 0 -208 73t-71 193q0 118 73.5 191.5t205.5 73.5q61 0 104.5 -17t68 -43.5t38 -70t17.5 -84t4 -97.5h-408q9 -91 54.5 -146.5t121.5 -55.5
q142 0 237 83zM314 499q-52 0 -90 -27t-56.5 -70t-26 -89.5t-4.5 -93.5h390q0 50 -4.5 87.5t-18 75.5t-36 62.5t-61.5 39.5t-93 15zM321 558l47 139h19l-47 -139h-19z" />
    <glyph glyph-name="ecircumflex" unicode="&#xea;" horiz-adv-x="584" 
d="M314 -16q-137 0 -208 73t-71 193q0 118 73.5 191.5t205.5 73.5q61 0 104.5 -17t68 -43.5t38 -70t17.5 -84t4 -97.5h-408q9 -91 54.5 -146.5t121.5 -55.5q142 0 237 83l8 -10q-1 -1 -7.5 -7t-12.5 -10.5t-16.5 -12t-21.5 -13.5t-26 -13.5t-32.5 -13t-37 -10.5t-43 -7.5
t-48.5 -2.5zM314 499q-52 0 -90 -27t-56.5 -70t-26 -89.5t-4.5 -93.5h390q0 50 -4.5 87.5t-18 75.5t-36 62.5t-61.5 39.5t-93 15zM214 599l109 105l109 -105l-12 -12l-97 94l-97 -94z" />
    <glyph glyph-name="edieresis" unicode="&#xeb;" horiz-adv-x="584" 
d="M35 250q0 118 73.5 191.5t205.5 73.5q61 0 104.5 -17t68 -43.5t38 -70t17.5 -84t4 -97.5h-408q9 -91 54.5 -146.5t121.5 -55.5q142 0 237 83l8 -10q-1 -1 -7.5 -7t-12.5 -10.5t-16.5 -12t-21.5 -13.5t-26 -13.5t-32.5 -13t-37 -10.5t-43 -7.5t-48.5 -2.5q-137 0 -208 73
t-71 193zM314 499q-52 0 -90 -27t-56.5 -70t-26 -89.5t-4.5 -93.5h390q0 50 -4.5 87.5t-18 75.5t-36 62.5t-61.5 39.5t-93 15zM264 595q-20 0 -34 14t-14 34t14 34t34 14t34 -14t14 -34q0 -19 -14 -33.5t-34 -14.5zM380 595q-20 0 -34 14t-14 34t14 34t34 14t34 -14t14 -34
t-14 -34t-34 -14z" />
    <glyph glyph-name="igrave" unicode="&#xec;" horiz-adv-x="210" 
d="M150 500v-500h-95v500h95zM91 697l47 -139h-19l-47 139h19z" />
    <glyph glyph-name="iacute" unicode="&#xed;" horiz-adv-x="210" 
d="M150 500v-500h-95v500h95zM72 558l47 139h19l-47 -139h-19z" />
    <glyph glyph-name="icircumflex" unicode="&#xee;" horiz-adv-x="210" 
d="M150 500v-500h-95v500h95zM105 681l-97 -94l-12 12l109 105l109 -105l-12 -12z" />
    <glyph glyph-name="idieresis" unicode="&#xef;" horiz-adv-x="252" 
d="M79 500h95v-500h-95v500zM184 636q-20 0 -34 14t-14 34t14 34t34 14t34 -14t14 -34t-14 -34t-34 -14zM68 636q-20 0 -34 14t-14 34t14 34t34 14t34 -14t14 -34t-14 -34t-34 -14z" />
    <glyph glyph-name="eth" unicode="&#xf0;" horiz-adv-x="662" 
d="M327 -14q-128 0 -209 69.5t-81 197.5q0 127 80 196t208 69q81 0 134 -54.5t70 -135.5q0 3 0.5 10.5t0.5 11.5q0 229 -105 309q-77 -47 -106 -113l-15 7q31 68 106 117q-46 27 -104 27v17q65 0 122 -33q57 33 108 33v-17q-41 0 -91 -26q182 -118 182 -347
q0 -175 -81 -256.5t-219 -81.5zM135 253q0 -122 55 -187.5t137 -65.5q54 0 95.5 27.5t62.5 72t30 97.5t-2 106.5t-33 98t-63 72t-92 27.5q-85 0 -137.5 -62t-52.5 -186z" />
    <glyph glyph-name="ntilde" unicode="&#xf1;" horiz-adv-x="627" 
d="M50 500h95v-292q9 55 23.5 102t40 97t67.5 79.5t96 29.5q50 0 87.5 -16t59.5 -42t35.5 -64.5t18 -77t4.5 -86.5v-230h-96v354q0 145 -108 145q-57 0 -100.5 -39t-66.5 -94t-38 -128.5t-19 -129t-4 -108.5h-95v500zM192 632l12 12q26 -24 60 -24t60 24q30 29 72 29
q43 0 72 -29l-11 -12q-25 25 -60 25q-34 0 -61 -25q-31 -29 -72 -29t-72 29z" />
    <glyph glyph-name="ograve" unicode="&#xf2;" 
d="M327 516q128 0 210 -69.5t82 -196.5t-82 -196.5t-210 -69.5t-210 69.5t-82 196.5t82 196.5t210 69.5zM327 -1q100 0 147 61.5t47 189.5q0 251 -194 251t-194 -251q0 -129 46.5 -190t147.5 -61zM295 697l48 -139h-19l-47 139h18z" />
    <glyph glyph-name="oacute" unicode="&#xf3;" 
d="M327 516q128 0 210 -69.5t82 -196.5t-82 -196.5t-210 -69.5t-210 69.5t-82 196.5t82 196.5t210 69.5zM327 -1q100 0 147 61.5t47 189.5q0 251 -194 251t-194 -251q0 -129 46.5 -190t147.5 -61zM321 558l47 139h19l-47 -139h-19z" />
    <glyph glyph-name="ocircumflex" unicode="&#xf4;" 
d="M35 250q0 127 82 196.5t210 69.5t210 -69.5t82 -196.5t-82 -196.5t-210 -69.5t-210 69.5t-82 196.5zM133 250q0 -129 46.5 -190t147.5 -61q100 0 147 61.5t47 189.5q0 251 -194 251t-194 -251zM226 587l-12 12l109 105l109 -105l-12 -12l-97 94z" />
    <glyph glyph-name="otilde" unicode="&#xf5;" 
d="M35 250q0 127 82 196.5t210 69.5t210 -69.5t82 -196.5t-82 -196.5t-210 -69.5t-210 69.5t-82 196.5zM327 501q-194 0 -194 -251q0 -129 46.5 -190t147.5 -61q100 0 147 61.5t47 189.5q0 251 -194 251zM261 603q-41 0 -72 29l11 12q26 -24 61 -24t60 24q30 29 72 29
q43 0 72 -29l-11 -12q-25 25 -60 25q-34 0 -61 -25q-31 -29 -72 -29z" />
    <glyph glyph-name="odieresis" unicode="&#xf6;" 
d="M35 250q0 127 82 196.5t210 69.5t210 -69.5t82 -196.5t-82 -196.5t-210 -69.5t-210 69.5t-82 196.5zM327 501q-194 0 -194 -251q0 -129 46.5 -190t147.5 -61q100 0 147 61.5t47 189.5q0 251 -194 251zM385 595q-19 0 -33.5 14.5t-14.5 33.5q0 20 14 34t34 14t34 -14
t14 -34t-14 -34t-34 -14zM269 595q-20 0 -34 14t-14 34t14 34t34 14t34 -14t14 -34q0 -19 -14.5 -33.5t-33.5 -14.5z" />
    <glyph glyph-name="divide" unicode="&#xf7;" horiz-adv-x="351" 
d="M176 390q-27 0 -46 19.5t-19 46.5t19 46t46 19t46 -19t19 -46t-19 -46.5t-46 -19.5zM111 49q0 27 19 46.5t46 19.5t46 -19.5t19 -46.5t-19 -46t-46 -19t-46 19t-19 46zM15 257v17h321v-17h-321z" />
    <glyph glyph-name="oslash" unicode="&#xf8;" 
d="M35 250q0 127 82 196.5t210 69.5q41 0 75 -7l38 119h15l-38 -122q92 -22 147 -88t55 -168q0 -127 -82 -196.5t-210 -69.5q-40 0 -72 7l-40 -129h-16l41 132q-94 21 -149.5 86.5t-55.5 169.5zM133 250q0 -196 113 -238l151 479q-30 10 -70 10q-194 0 -194 -251zM260 7
q32 -8 67 -8q100 0 147 61.5t47 189.5q0 189 -110 236z" />
    <glyph glyph-name="ugrave" unicode="&#xf9;" horiz-adv-x="627" 
d="M255 -16q-50 0 -87.5 16t-59.5 42t-35.5 64.5t-18 77t-4.5 86.5v230h96v-355q0 -145 108 -145q48 0 86.5 26.5t62.5 71.5t40.5 97t25 112t11.5 105t3 88h94l1 -500h-95v292q-28 -164 -93 -241q-55 -67 -135 -67zM295 697l48 -139h-19l-47 139h18z" />
    <glyph glyph-name="uacute" unicode="&#xfa;" horiz-adv-x="627" 
d="M255 -16q-50 0 -87.5 16t-59.5 42t-35.5 64.5t-18 77t-4.5 86.5v230h96v-355q0 -145 108 -145q48 0 86.5 26.5t62.5 71.5t40.5 97t25 112t11.5 105t3 88h94l1 -500h-95v292q-28 -164 -93 -241q-55 -67 -135 -67zM280 558l48 139h19l-48 -139h-19z" />
    <glyph glyph-name="ucircumflex" unicode="&#xfb;" horiz-adv-x="627" 
d="M50 500h96v-355q0 -145 108 -145q48 0 86.5 26.5t62.5 71.5t40.5 97t25 112t11.5 105t3 88h94l1 -500h-95v292q-7 -42 -17 -79t-28.5 -81t-42 -75t-60 -52t-80.5 -21q-50 0 -87.5 16t-59.5 42t-35.5 64.5t-18 77t-4.5 86.5v230zM226 587l-12 12l109 105l109 -105l-12 -12
l-97 94z" />
    <glyph glyph-name="udieresis" unicode="&#xfc;" horiz-adv-x="627" 
d="M50 500h96v-355q0 -145 108 -145q48 0 86.5 26.5t62.5 71.5t40.5 97t25 112t11.5 105t3 88h94l1 -500h-95v292q-7 -42 -17 -79t-28.5 -81t-42 -75t-60 -52t-80.5 -21q-50 0 -87.5 16t-59.5 42t-35.5 64.5t-18 77t-4.5 86.5v230zM264 595q-20 0 -34 14t-14 34t14 34t34 14
t34 -14t14 -34q0 -19 -14 -33.5t-34 -14.5zM380 595q-20 0 -34 14t-14 34t14 34t34 14t34 -14t14 -34t-14 -34t-34 -14z" />
    <glyph glyph-name="yacute" unicode="&#xfd;" horiz-adv-x="625" 
d="M577 500h18q-4 -10 -46.5 -130t-105 -297t-81.5 -230q-10 -28 -37 -45.5t-62 -17.5q-49 0 -79 30t-32 80q-1 45 32 77.5t79 32.5h74l-307 500h109l277 -455q26 75 65.5 185.5t64.5 181t31 88.5zM347 -151q4 13 20.5 59t26.5 76h-131q-39 0 -66.5 -27.5t-27.5 -66.5
q0 -33 25.5 -63t66.5 -30q29 0 53.5 14.5t32.5 37.5zM321 558l47 139h19l-47 -139h-19z" />
    <glyph glyph-name="thorn" unicode="&#xfe;" horiz-adv-x="564" 
d="M145 -261h-95v1006h95v-231h112q115 0 193.5 -75t78.5 -190t-79 -189t-194 -74h-112zM145 500l-1 -500h112q74 0 124.5 70.5t50.5 178.5t-51 179.5t-124 71.5h-111z" />
    <glyph glyph-name="ydieresis" unicode="&#xff;" horiz-adv-x="625" 
d="M30 500h109l277 -455q26 75 65.5 185.5t64.5 181t31 88.5h18q-144 -395 -233 -657q-10 -28 -37 -45.5t-62 -17.5q-49 0 -79.5 30t-31.5 80q-1 45 32 77.5t79 32.5h74zM263 -16q-39 0 -66.5 -27.5t-27.5 -66.5q0 -33 25.5 -63t66.5 -30q29 0 53.5 14.5t32.5 37.5
q4 13 20.5 59t26.5 76h-131zM368 643q0 20 14 34t34 14t34 -14t14 -34t-14 -34t-34 -14t-34 14.5t-14 33.5zM252 643q0 20 14 34t34 14t34 -14t14 -34t-14 -34t-34 -14t-34 14t-14 34z" />
    <glyph glyph-name="Dcroat" unicode="&#x110;" horiz-adv-x="805" 
d="M15 406v16h86v275h94v-162q2 12 8.5 30t23.5 45t40 49.5t61.5 38.5t85.5 16q161 0 258.5 -94t97.5 -270q0 -157 -108 -253.5t-267 -96.5h-294v406h-86zM195 14h207q114 0 192.5 93.5t78.5 242.5q0 165 -72 258t-187 93q-98 0 -157.5 -77.5t-61.5 -201.5h186v-16h-186
v-392z" />
    <glyph glyph-name="dcroat" unicode="&#x111;" horiz-adv-x="680" 
d="M35 257q0 65 15.5 112.5t41 75.5t65.5 44.5t80.5 22t93.5 5.5q89 0 168 -38v139h-185v16h185v129h95v-129h86v-16h-86v-618h-95v256q-11 -66 -19 -89q-32 -97 -79 -139t-129 -42q-108 0 -172.5 73.5t-64.5 197.5zM331 503q-51 0 -84 -9t-60.5 -34t-40.5 -75t-13 -127
q0 -78 11.5 -132t43 -89t83.5 -35q72 0 119 37t74 133q33 119 35 292q-81 39 -168 39z" />
    <glyph glyph-name="Lslash" unicode="&#x141;" horiz-adv-x="611" 
d="M15 145q23 76 75 148v404h96v-301q47 37 95 57l6 -16q-52 -20 -101 -63v-358h405v-16h-501v263q-39 -57 -59 -123z" />
    <glyph glyph-name="lslash" unicode="&#x142;" horiz-adv-x="301" 
d="M31 140l-16 5q24 75 74 146v452h95v-350q49 39 96 58l6 -16q-52 -19 -102 -63v-372h-95v262q-38 -58 -58 -122z" />
    <glyph glyph-name="OE" unicode="&#x152;" horiz-adv-x="1098" 
d="M35 348v2q1 174 98 268t257 94q124 0 188 -72v57h500v-15h-406v-311h317v-16h-317v-338h406v-16h-500v57q-64 -72 -188 -72q-160 0 -257 94t-98 268zM391 697q-115 0 -187 -91.5t-72 -256.5t72 -256.5t187 -91.5q135 0 187 92v512q-52 92 -187 92z" />
    <glyph glyph-name="oe" unicode="&#x153;" horiz-adv-x="1070" 
d="M35 250q0 127 82 196.5t210 69.5q164 0 242 -104q74 103 231 103q61 0 104.5 -17t68 -43.5t38 -70t17.5 -84t4 -97.5h-408q9 -91 54.5 -146.5t121.5 -55.5q141 0 237 83l8 -10q-1 -1 -7.5 -7t-12.5 -10.5t-16.5 -12t-21.5 -13.5t-26 -13.5t-32.5 -13t-37 -10.5t-43 -7.5
t-48.5 -2.5q-161 0 -232 102q-81 -102 -241 -102q-128 0 -210 69.5t-82 196.5zM133 250q0 -129 46.5 -190t147.5 -61q100 0 147 61.5t47 189.5q0 251 -194 251t-194 -251zM800 499q-52 0 -90 -27t-56.5 -70t-26 -89.5t-4.5 -93.5h390q0 50 -4.5 87.5t-18 75.5t-36 62.5
t-61.5 39.5t-93 15z" />
    <glyph glyph-name="Scaron" unicode="&#x160;" horiz-adv-x="675" 
d="M348 417q163 -14 225 -70t62 -164q0 -104 -68.5 -151.5t-226.5 -47.5q-154 0 -227 55t-73 182l112 17q0 -131 39 -184.5t149 -53.5q47 0 81.5 3.5t66.5 13t52 26t31.5 44t11.5 64.5q0 75 -57.5 113.5t-211.5 58.5q-140 17 -193.5 67.5t-53.5 139.5q0 91 69.5 136.5
t179.5 45.5q276 0 276 -217l-107 -14q0 40 -1.5 63t-6.5 51.5t-15.5 44t-29 30t-47.5 20.5t-69 6q-199 0 -199 -135q0 -125 231 -144zM338 768l97 94l11 -12l-108 -105l-109 105l11 12z" />
    <glyph glyph-name="scaron" unicode="&#x161;" horiz-adv-x="545" 
d="M394 291q111 -39 111 -149q0 -86 -59 -121t-169 -35q-123 0 -180 41.5t-57 132.5l96 14q0 -101 29.5 -137t125.5 -36q94 0 124.5 25.5t30.5 68.5q0 63 -42 90t-137 43q-112 18 -160 49.5t-48 96.5q0 67 47 103t138 36q220 0 220 -212zM267 319q57 -9 91 -18l16 -4
q0 45 -1.5 68.5t-8.5 54t-21 44.5t-41.5 24.5t-67.5 10.5q-66 0 -97.5 -23t-31.5 -61q0 -44 37.5 -62.5t124.5 -33.5zM272 612l97 94l12 -12l-109 -105l-109 105l12 12z" />
    <glyph glyph-name="Ydieresis" unicode="&#x178;" horiz-adv-x="650" 
d="M340 191l-310 506h110l294 -485l168 485h18l-227 -652q-10 -29 -40 -47.5t-64 -16.5q-45 2 -74.5 31.5t-31.5 74.5q-2 43 27.5 73.5t73.5 30.5h56zM284 175q-34 0 -60 -27.5t-24 -60.5q2 -34 28 -60.5t59 -28.5q29 -2 55.5 13.5t34.5 38.5l44 125h-137zM309 739
q-20 0 -34 14t-14 34t14 34t34 14q19 0 33.5 -14.5t14.5 -33.5q0 -20 -14 -34t-34 -14zM377 787q0 20 14 34t34 14q19 0 33.5 -14.5t14.5 -33.5q0 -20 -14 -34t-34 -14t-34 14t-14 34z" />
    <glyph glyph-name="Zcaron" unicode="&#x17d;" horiz-adv-x="746" 
d="M182 16h524v-16h-654l511 681h-523v16h654zM373 768l97 94l12 -11l-109 -106l-109 106l12 11z" />
    <glyph glyph-name="zcaron" unicode="&#x17e;" horiz-adv-x="577" 
d="M535 500l-363 -484h375v-16h-505l363 484h-375v16h505zM289 612l97 94l11 -11l-108 -106l-109 106l11 11z" />
    <glyph glyph-name="tilde" unicode="&#x2dc;" horiz-adv-x="447" 
d="M85 275l12 12q26 -24 61 -24q34 0 60 24q29 29 72 29t72 -29l-12 -12q-25 25 -60 25q-34 0 -61 -25q-31 -29 -72 -29q-40 0 -72 29z" />
    <glyph glyph-name="uni0401" unicode="&#x401;" horiz-adv-x="571" 
d="M552 0h-502v697h502v-16h-407v-310h317v-16h-317v-338h407v-17zM388 739q-20 0 -34 14t-14 34t14 34t34 14t34 -14.5t14 -33.5q0 -20 -14 -34t-34 -14zM239 739q-20 0 -34 14t-14 34q0 19 14.5 33.5t33.5 14.5q20 0 34 -14t14 -34t-14 -34t-34 -14z" />
    <glyph glyph-name="uni0404" unicode="&#x404;" horiz-adv-x="765" 
d="M401 -16q-172 0 -269 101.5t-97 262.5q0 163 96.5 263.5t269.5 100.5q130 0 206.5 -54t87.5 -122l-17 -2q-4 22 -23 53t-48 52q-80 57 -206 57q-121 0 -190 -87t-74 -238h281v-16h-281v-7q0 -163 74 -254t190 -91q39 0 68 2.5t77 12t95 35t87 64.5l12 -11
q-124 -122 -339 -122z" />
    <glyph glyph-name="uni0405" unicode="&#x405;" horiz-adv-x="675" 
d="M348 417q163 -14 225 -70t62 -164q0 -104 -68.5 -151.5t-226.5 -47.5q-154 0 -227 55t-73 182l112 17q0 -131 39 -184.5t149 -53.5q47 0 81.5 3.5t66.5 13t52 26t31.5 44t11.5 64.5q0 75 -57.5 113.5t-211.5 58.5q-140 17 -193.5 67.5t-53.5 139.5q0 91 69.5 136.5
t179.5 45.5q276 0 276 -217l-107 -14q0 40 -1.5 63t-6.5 51.5t-15.5 44t-29 30t-47.5 20.5t-69 6q-199 0 -199 -135q0 -125 231 -144z" />
    <glyph glyph-name="uni0406" unicode="&#x406;" horiz-adv-x="195" 
d="M145 697v-697h-95v697h95z" />
    <glyph glyph-name="uni0407" unicode="&#x407;" horiz-adv-x="232" 
d="M69 697h95v-697h-95v697zM174 739q-20 0 -34 14t-14 34q0 19 14 33.5t34 14.5t34 -14t14 -34t-14 -34t-34 -14zM58 739q-20 0 -34 14t-14 34q0 19 14 33.5t34 14.5t34 -14t14 -34t-14 -34t-34 -14z" />
    <glyph glyph-name="uni0408" unicode="&#x408;" horiz-adv-x="395" 
d="M6 -141q-5 71 21 142.5t65 124.5t96 111l12 -12q-192 -192 -178 -365q9 -118 119 -118q108 0 108 144v811h96v-686q0 -47 -4.5 -85t-17.5 -77t-35 -65t-59 -42.5t-87 -16.5q-127 2 -136 134z" />
    <glyph glyph-name="uni040E" unicode="&#x40e;" horiz-adv-x="650" 
d="M340 191l-310 506h110l294 -485l168 485h18l-227 -652q-10 -29 -40 -47.5t-64 -16.5q-45 2 -74.5 31.5t-31.5 74.5q-2 43 27.5 73.5t73.5 30.5h56zM284 175q-34 0 -60 -27.5t-24 -60.5q2 -34 28 -60.5t59 -28.5q29 -2 55.5 13.5t34.5 38.5l44 125h-137zM293 697h17
q0 -24 16.5 -40.5t40.5 -16.5q23 0 40 16.5t17 40.5h16q0 -31 -21.5 -52.5t-51.5 -21.5q-31 0 -52.5 21.5t-21.5 52.5z" />
    <glyph glyph-name="uni0410" unicode="&#x410;" horiz-adv-x="674" 
d="M30 0l240 697h103l271 -697h-102l-111 285h-285l-98 -285h-18zM280 675l-128 -373h273z" />
    <glyph glyph-name="uni0411" unicode="&#x411;" horiz-adv-x="646" 
d="M50 0v697h492v-16h-397v-241h190q123 0 199.5 -54.5t76.5 -164.5q0 -126 -64 -173.5t-212 -47.5h-285zM145 18h190q101 0 139.5 46.5t38.5 156.5q0 102 -48 151.5t-130 49.5h-190v-404z" />
    <glyph glyph-name="uni0412" unicode="&#x412;" horiz-adv-x="668" 
d="M50 0v697h95v-197q3 16 7.5 34.5t20 52.5t37 59.5t60 45.5t86.5 20q33 0 58.5 -2.5t56.5 -12.5t51 -26.5t34 -47t14 -72.5q0 -70 -41.5 -114t-115.5 -49q106 -9 163.5 -52t57.5 -142q0 -36 -7 -64.5t-23 -48t-32 -34t-44.5 -23.5t-49 -14t-56.5 -7t-56.5 -2.5t-59.5 -0.5
h-3h-3h-3h-247zM317 379h-172v-362h159q53 0 83 2.5t62.5 11.5t48 28t26 52t10.5 83q0 104 -53 144.5t-164 40.5zM356 696q-45 0 -80.5 -17.5t-57.5 -49t-36.5 -62t-22 -71t-10 -59.5t-4.5 -43h211q116 2 116 166q0 136 -116 136z" />
    <glyph glyph-name="uni0413" unicode="&#x413;" horiz-adv-x="537" 
d="M517 697v-16h-372v-681h-95v697h467z" />
    <glyph glyph-name="uni0414" unicode="&#x414;" horiz-adv-x="771" 
d="M656 0h-646v17q32 0 54 38t70 177q90 258 159 465h103l265 -680q47 -2 79.5 -36.5t32.5 -81.5q0 -48 -34.5 -82.5t-82.5 -34.5q-49 0 -83.5 34.5t-34.5 82.5h17q0 -41 29.5 -70.5t71.5 -29.5q41 0 70.5 29.5t29.5 70.5q0 42 -29.5 71.5t-70.5 29.5zM150 227
q-63 -182 -94 -210h503l-256 659q-112 -331 -153 -449z" />
    <glyph glyph-name="uni0415" unicode="&#x415;" horiz-adv-x="571" 
d="M50 0v697h502v-16h-407v-310h317v-16h-317v-338h407v-17h-502z" />
    <glyph glyph-name="uni0416" unicode="&#x416;" horiz-adv-x="989" 
d="M144 0h-109q0 187 74 277.5t257 92.5q3 50 0 114t-20 112q-18 52 -53.5 76t-95.5 24q-55 0 -92 -37t-37 -93q0 -53 38 -91t91 -38v-17q-60 0 -103 43t-43 103q0 62 42 104t104 42q65 0 105 -25.5t60 -85.5q6 -18 10.5 -38.5t6.5 -36.5t3 -40.5t1 -37v-40.5v-38h64v327h95
v-327h64q0 42 -0.5 78t4.5 77t17 76q20 60 60 85.5t104 25.5q63 0 104.5 -42t41.5 -104q0 -60 -42.5 -103t-103.5 -43v17q54 0 92 38t38 91q0 56 -37.5 93t-92.5 37q-60 0 -95 -23.5t-53 -76.5q-6 -18 -10 -38.5t-6.5 -34.5t-3.5 -40t-1 -35.5v-41v-36.5q183 -2 257.5 -93
t74.5 -277h-109q0 38 -0.5 57.5t-2 55t-5.5 55.5t-11.5 49.5t-18.5 46.5t-28 37t-38.5 30.5t-51.5 17.5t-66 7h-81v-356h-95v356h-82q-64 0 -108 -23t-65.5 -51.5t-33 -85t-13 -92.5t-1.5 -104z" />
    <glyph glyph-name="uni0417" unicode="&#x417;" horiz-adv-x="744" 
d="M40 680v17h654l-428 -571q107 85 220 85q70 0 129 -36q55 -34 76 -93t8.5 -114.5t-59.5 -96.5t-115 -41q-82 0 -128 45t-46 124h17q0 -73 41 -112.5t116 -39.5q62 0 104.5 37.5t54 87.5t-8 104t-69.5 85q-55 34 -121 34q-88 0 -173.5 -57t-140.5 -139h-119l512 681h-524z
" />
    <glyph glyph-name="uni0418" unicode="&#x418;" horiz-adv-x="664" 
d="M145 0h-95v697h95v-680q23 0 47 2.5t61 13t69.5 27.5t67.5 49.5t61.5 75t45 108t22.5 145.5v259h95v-697h-95v313q-33 -143 -131.5 -228t-242.5 -85z" />
    <glyph glyph-name="uni0419" unicode="&#x419;" horiz-adv-x="664" 
d="M50 697h95v-680q23 0 47 2.5t61 13t69.5 27.5t67.5 49.5t61.5 75t45 108t22.5 145.5v259h95v-697h-95v313q-33 -143 -131.5 -228t-242.5 -85h-95v697zM332 623q-30 0 -51.5 21.5t-21.5 52.5h16q0 -24 17 -40.5t40 -16.5t40 16.5t17 40.5h17q0 -31 -21.5 -52.5
t-52.5 -21.5z" />
    <glyph glyph-name="uni041A" unicode="&#x41a;" horiz-adv-x="610" 
d="M50 697h95v-327h89q19 0 55 -2l204 329h19l-205 -331q268 -34 268 -326v-40h-109v40q0 173 -53 244.5t-168 71.5h-100v-355h-95v696z" />
    <glyph glyph-name="uni041B" unicode="&#x41b;" horiz-adv-x="674" 
d="M30 0l240 697h103l271 -697h-102l-262 673l-232 -673h-18z" />
    <glyph glyph-name="uni041C" unicode="&#x41c;" horiz-adv-x="794" 
d="M50 0v697h96l251 -330l251 330h96v-697h-94v671l-253 -332l-252 332v-671h-95z" />
    <glyph glyph-name="uni041D" unicode="&#x41d;" horiz-adv-x="674" 
d="M50 697h95v-327h384v327h95v-697h-95v354h-384v-354h-95v697z" />
    <glyph glyph-name="uni041E" unicode="&#x41e;" horiz-adv-x="859" 
d="M35 348q0 91 32.5 162t88 114.5t125 65.5t148.5 22t149 -22t125.5 -65.5t88 -114.5t32.5 -162q0 -92 -32 -163.5t-88 -114t-125.5 -64.5t-149.5 -22t-149 22t-125 64.5t-88 114t-32 163.5zM429 696q-59 0 -109.5 -18.5t-93 -57.5t-67 -108.5t-24.5 -163.5t24.5 -164
t67 -109t93 -57.5t109.5 -18.5t110 18.5t93.5 57.5t67 109t24.5 164t-24.5 163.5t-67 108.5t-93.5 57.5t-110 18.5z" />
    <glyph glyph-name="uni041F" unicode="&#x41f;" horiz-adv-x="664" 
d="M145 0h-95v697h564v-697h-95v681h-374v-681z" />
    <glyph glyph-name="uni0420" unicode="&#x420;" 
d="M50 697h95v-232q9 53 20.5 90.5t33.5 76.5t59.5 59.5t90.5 20.5q118 0 194 -55.5t76 -173.5q0 -60 -16.5 -104t-43.5 -70t-68 -42t-82.5 -21t-95.5 -5h-168v-241h-95v697zM181 551q-20 -69 -29 -142.5t-8 -112.5l1 -40h168q35 0 59.5 3t55 16t49 36.5t31.5 67t13 104.5
q0 119 -42.5 166t-129.5 47q-22 0 -37.5 -2t-36.5 -10t-36 -23t-31 -43t-27 -67z" />
    <glyph glyph-name="uni0421" unicode="&#x421;" horiz-adv-x="765" 
d="M401 -16q-172 0 -269 101.5t-97 262.5q0 163 96.5 263.5t269.5 100.5q130 0 206.5 -54t87.5 -122l-17 -2q-7 43 -37 76t-71.5 51t-84.5 26.5t-84 8.5q-126 0 -195 -93.5t-69 -254.5q0 -163 74 -254t190 -91q39 0 68 2.5t77 12t95 35t87 64.5l12 -11q-124 -122 -339 -122z
" />
    <glyph glyph-name="uni0422" unicode="&#x422;" horiz-adv-x="670" 
d="M288 681h-288v16h670v-16h-287v-681h-95v681z" />
    <glyph glyph-name="uni0423" unicode="&#x423;" horiz-adv-x="650" 
d="M340 191l-310 506h110l294 -485q24 70 86 249t82 236h18q-9 -27 -103.5 -298.5t-123.5 -353.5q-10 -29 -40 -47.5t-64 -16.5q-45 2 -74.5 31.5t-31.5 74.5q-2 43 27.5 73.5t73.5 30.5h56zM284 175q-34 0 -60 -27.5t-24 -60.5q2 -34 28 -60.5t59 -28.5q29 -2 55.5 13.5
t34.5 38.5q4 12 19 54.5t25 70.5h-137z" />
    <glyph glyph-name="uni0424" unicode="&#x424;" horiz-adv-x="993" 
d="M409 62q-164 1 -269 75t-105 213t105.5 212.5t269.5 73.5h41v61h95l-1 -61h40q163 -1 268 -74t105 -212t-105 -213t-269 -75h-40v-62h-95v62h-40zM403 619q-119 0 -195 -69t-76 -200q0 -132 76 -201.5t195 -69.5h46l2 540h-48zM544 79h46q118 0 194.5 70t76.5 201
t-76.5 200t-194.5 69h-45z" />
    <glyph glyph-name="uni0425" unicode="&#x425;" horiz-adv-x="722" 
d="M322 322l-282 375h119l222 -296l222 296h21l-233 -310l291 -387h-119l-231 308l-231 -308h-21z" />
    <glyph glyph-name="uni0426" unicode="&#x426;" horiz-adv-x="664" 
d="M50 0v697h95v-681h374v681h95v-697h-224q59 -34 59 -102q0 -48 -34 -82.5t-83 -34.5t-83 34.5t-34 82.5h16q0 -41 30 -70.5t71 -29.5q42 0 71.5 29.5t29.5 70.5q0 42 -29.5 72t-71.5 30h-282z" />
    <glyph glyph-name="uni0427" unicode="&#x427;" horiz-adv-x="627" 
d="M50 697h96v-243q0 -99 30 -148t78 -49q51 0 92.5 33t66 82t41.5 111t23 115t6 99h94v-697h-94v548q-52 -307 -228 -307q-107 0 -156 67t-49 181v208z" />
    <glyph glyph-name="uni0428" unicode="&#x428;" horiz-adv-x="920" 
d="M50 697h95v-681h268v681h94v-681h268v681h95v-697h-820v697z" />
    <glyph glyph-name="uni0429" unicode="&#x429;" horiz-adv-x="920" 
d="M50 0v697h95v-681h268v681h94v-681h268v681h95v-697h-348q55 -35 55 -99q0 -49 -34 -83.5t-83 -34.5t-83 34.5t-34 83.5h16q0 -42 30 -71.5t71 -29.5q42 0 71.5 29.5t29.5 71.5q0 37 -24.5 65.5t-60.5 33.5h-426z" />
    <glyph glyph-name="uni042A" unicode="&#x42a;" horiz-adv-x="807" 
d="M15 618q0 32 23.5 55.5t55.5 23.5h212v-257h207q68 0 124.5 -22t95.5 -73.5t39 -125.5q0 -122 -73.5 -170.5t-211.5 -48.5h-275v680h-118q-26 0 -44 -18t-18 -44t18 -44.5t44 -18.5v-16q-32 0 -55.5 23t-23.5 56zM306 14h157q212 0 212 206q0 100 -52.5 154t-125.5 54
h-191v-414z" />
    <glyph glyph-name="uni042B" unicode="&#x42b;" horiz-adv-x="848" 
d="M325 0h-275v697h95v-257h207q67 0 124 -22t96 -73.5t39 -125.5q0 -122 -73.5 -170.5t-212.5 -48.5zM335 428h-190v-414h156q212 0 212 206q0 100 -52.5 154t-125.5 54zM703 0v697h95v-697h-95z" />
    <glyph glyph-name="uni042C" unicode="&#x42c;" horiz-adv-x="646" 
d="M50 0v697h95v-257h207q67 0 124 -22t96 -73.5t39 -125.5q0 -122 -73.5 -170.5t-212.5 -48.5h-275zM145 14h156q212 0 212 206q0 100 -52.5 154t-125.5 54h-190v-414z" />
    <glyph glyph-name="uni042D" unicode="&#x42d;" horiz-adv-x="765" 
d="M25 106l12 11q40 -39 87 -64.5t95 -35t77 -12t68 -2.5q116 0 190 94t74 258h-281v16h281q-5 151 -74 238t-190 87q-41 0 -84 -8.5t-84.5 -26.5t-71.5 -51t-37 -76l-17 2q11 68 87.5 122t206.5 54q173 0 269.5 -100.5t96.5 -263.5q0 -161 -97 -262.5t-269 -101.5
q-215 0 -339 122z" />
    <glyph glyph-name="uni042E" unicode="&#x42e;" horiz-adv-x="1043" 
d="M50 0v697h95v-313q40 171 162 250.5t307 79.5q79 0 148.5 -22t125 -65.5t88 -114.5t32.5 -162q0 -92 -32 -163.5t-88 -114t-125 -64.5t-149 -22t-149.5 22t-125 64.5t-87.5 114t-32 163.5q0 207 151 300q-211 -91 -226 -393v-257h-95zM614 698q-59 0 -110 -18.5
t-93.5 -57.5t-67 -108.5t-24.5 -163.5t24.5 -164t67 -109t93.5 -57.5t110 -18.5t109.5 18.5t93.5 57.5t67.5 109t24.5 164t-24.5 163.5t-67.5 108.5t-93.5 57.5t-109.5 18.5z" />
    <glyph glyph-name="uni042F" unicode="&#x42f;" horiz-adv-x="669" 
d="M35 101q0 46 32 78t78 32v-16q-39 0 -66.5 -27.5t-27.5 -66.5t27 -66t65 -27q68 0 96 79l54 156q-111 -2 -177.5 55.5t-66.5 185.5q0 118 76 173.5t195 55.5q53 0 90.5 -20.5t59.5 -59.5t33.5 -76.5t20.5 -90.5v231h95v-697h-95v241l-213 1l-56 -160q-15 -43 -44.5 -67
t-65.5 -24q-46 0 -78 31.5t-32 78.5zM148 484q0 -61 13 -104.5t31.5 -67t49 -37t55 -16.5t59.5 -3h168q8 141 -36 296q-11 39 -27 67t-31 43t-36 23t-37 10t-38 2q-86 0 -128.5 -47t-42.5 -166z" />
    <glyph glyph-name="uni0430" unicode="&#x430;" horiz-adv-x="619" 
d="M247 -15q-30 0 -53.5 2.5t-55.5 14t-52.5 31.5t-35.5 58t-15 91q0 60 33 105t97 62l-95 52q33 57 90.5 85t179.5 28q53 0 90 -7.5t71 -27.5t51 -61t17 -104v-314h-94v251q-8 -46 -16.5 -80t-26 -71t-40.5 -60.5t-60 -39t-85 -15.5zM246 343q-49 0 -81 -41.5t-32 -129.5
q0 -91 31.5 -131.5t81.5 -40.5q73 0 121 38t74 135q26 94 31 170h-226zM182 354q18 6 64 6h228q0 43 -3.5 65.5t-16.5 42t-40 26.5t-74 7q-142 0 -158 -147z" />
    <glyph glyph-name="uni0431" unicode="&#x431;" 
d="M57 364q-19 40 -21 86.5t16 92.5t52.5 83.5t96.5 61t140 23.5q102 0 220 -38q-36 -94 -42 -106q-39 29 -111 50t-144 21q-156 0 -196 -97q-14 -33 -15.5 -77t14.5 -81q35 65 103.5 99t156.5 34q128 0 210 -69.5t82 -196.5t-82 -196.5t-210 -69.5t-210 69.5t-82 196.5
q0 62 22 114zM327 501q-194 0 -194 -251q0 -129 46.5 -190t147.5 -61q100 0 147 61.5t47 189.5q0 251 -194 251z" />
    <glyph glyph-name="uni0432" unicode="&#x432;" horiz-adv-x="578" 
d="M50 500h95v-93q12 41 52.5 74t118.5 33q187 0 187 -122q0 -100 -96 -121q71 -6 103.5 -34.5t32.5 -99.5q0 -33 -9 -57.5t-29.5 -39t-39.5 -23.5t-53.5 -12.5t-55.5 -4t-61 -0.5h-7h-238v500zM318 263h-173v-247h136q28 0 41.5 0.5t34 2.5t30.5 6.5t22.5 13t18 21.5
t9.5 32t4 44q0 73 -28 100t-95 27zM314 500q-31 0 -56 -6t-42 -18t-30 -24.5t-20.5 -31.5t-12.5 -32.5t-6.5 -34.5t-2 -30.5t0 -26.5t0.5 -18h161q52 0 76 21.5t24 91.5q0 63 -22.5 86t-69.5 23z" />
    <glyph glyph-name="uni0433" unicode="&#x433;" horiz-adv-x="447" 
d="M50 500h377v-15h-282v-485h-95v500z" />
    <glyph glyph-name="uni0434" unicode="&#x434;" horiz-adv-x="615" 
d="M10 0v17q23 0 37.5 12.5t34 56t52.5 138.5l95 276h102q175 -449 188 -483q45 -5 76 -38.5t31 -79.5q0 -48 -34.5 -82.5t-82.5 -34.5q-49 0 -83.5 34.5t-34.5 82.5h17q0 -41 29.5 -70.5t71.5 -29.5q41 0 70.5 29.5t29.5 70.5t-29 70.5t-70 30.5h-500zM150 218
q-2 -4 -12 -34t-17 -48.5t-18.5 -45.5t-22.5 -45.5t-22 -28.5h359l-178 459q-17 -49 -50 -145t-39 -112z" />
    <glyph glyph-name="uni0435" unicode="&#x435;" horiz-adv-x="584" 
d="M314 -16q-137 0 -208 73t-71 193q0 118 73.5 191.5t205.5 73.5q61 0 104.5 -17t68 -43.5t38 -70t17.5 -84t4 -97.5h-408q9 -91 54.5 -146.5t121.5 -55.5q142 0 237 83l8 -10q-1 -1 -7.5 -7t-12.5 -10.5t-16.5 -12t-21.5 -13.5t-26 -13.5t-32.5 -13t-37 -10.5t-43 -7.5
t-48.5 -2.5zM314 499q-52 0 -90 -27t-56.5 -70t-26 -89.5t-4.5 -93.5h390q0 50 -4.5 87.5t-18 75.5t-36 62.5t-61.5 39.5t-93 15z" />
    <glyph glyph-name="uni0436" unicode="&#x436;" horiz-adv-x="825" 
d="M133 0h-98q0 134 62.5 201t195.5 71v34t-1 33.5t-3 36t-6 31t-10 31.5l-16 24t-22.5 21t-30.5 11.5t-39 5.5q-35 0 -60.5 -25.5t-25.5 -60.5t25.5 -60.5t60.5 -25.5v-17q-42 0 -72 30t-30 73t30 73t72 30q26 0 47.5 -5.5t36 -18t25.5 -25t17 -34t10 -37t5.5 -42t2 -41
t0.5 -42.5h56v472h95v-472h55q0 28 0.5 42.5t2 41t5.5 42t10 37t17 34t25.5 25t36 18t47.5 5.5q43 0 73 -30t30 -73t-30 -73t-73 -30v17q36 0 61 25.5t25 60.5t-25 60.5t-61 25.5q-26 0 -47 -7.5t-34 -18t-22.5 -30.5t-14 -35t-6.5 -42t-2.5 -41.5t-0.5 -43.5v-10
q133 -4 195.5 -71t62.5 -201h-99q0 49 -2 78.5t-11 68t-26 60t-50.5 37t-80.5 15.5h-61v-259h-95v259h-62q-47 0 -80.5 -15.5t-50.5 -37t-26 -60t-11 -68t-2 -78.5z" />
    <glyph glyph-name="uni0437" unicode="&#x437;" horiz-adv-x="601" 
d="M405 487h-375v13h505l-288 -382q75 54 154 54q56 0 101 -28q43 -26 59.5 -72.5t6 -89.5t-46.5 -75t-89 -32q-62 0 -98 32.5t-38 91.5h16q2 -51 33.5 -79.5t86.5 -28.5q47 0 79 28.5t41 67t-5.5 79.5t-53.5 64q-43 26 -92 26q-55 0 -109 -29.5t-95 -75.5l-37 -51h-118z
" />
    <glyph glyph-name="uni0438" unicode="&#x438;" horiz-adv-x="621" 
d="M50 0v500h95v-483q31 0 63.5 6.5t81 31.5t85.5 67t67 123t35 190v65h94v-500h-94v304q-33 -150 -121 -226q-33 -28 -66 -45t-73.5 -23.5t-67 -8t-80.5 -1.5h-19z" />
    <glyph glyph-name="uni0439" unicode="&#x439;" horiz-adv-x="621" 
d="M50 500h95v-483q31 0 63.5 6.5t81 31.5t85.5 67t67 123t35 190v65h94v-500h-94v304q-33 -148 -126 -228q-26 -22 -54.5 -37t-50.5 -23t-57 -11.5t-54.5 -4t-62.5 -0.5h-22v500zM311 574q-31 0 -52.5 21.5t-21.5 51.5h17q0 -23 16.5 -40t40.5 -17q23 0 40 17t17 40h16
q0 -30 -21.5 -51.5t-51.5 -21.5z" />
    <glyph glyph-name="uni043A" unicode="&#x43a;" horiz-adv-x="533" 
d="M50 0v744h95v-472q118 0 149 -5l147 232h19l-149 -235q103 -21 145 -87.5t42 -176.5h-98q0 40 -1.5 65.5t-6 59.5t-16 55t-29.5 41t-47.5 29.5t-69.5 9.5h-85v-260h-95z" />
    <glyph glyph-name="uni043B" unicode="&#x43b;" horiz-adv-x="526" 
d="M48 0h-18l170 500h102l194 -500h-102l-185 476z" />
    <glyph glyph-name="uni043C" unicode="&#x43c;" horiz-adv-x="709" 
d="M50 0v500h96l209 -273l208 273h96v-500h-95v473l-209 -273l-210 273v-473h-95z" />
    <glyph glyph-name="uni043D" unicode="&#x43d;" horiz-adv-x="619" 
d="M50 500h94v-228h331v228h94v-498h-94v255h-331v-255h-94v498z" />
    <glyph glyph-name="uni043E" unicode="&#x43e;" 
d="M35 250q0 127 82 196.5t210 69.5t210 -69.5t82 -196.5t-82 -196.5t-210 -69.5t-210 69.5t-82 196.5zM327 501q-194 0 -194 -251q0 -129 46.5 -190t147.5 -61q100 0 147 61.5t47 189.5q0 251 -194 251z" />
    <glyph glyph-name="uni043F" unicode="&#x43f;" horiz-adv-x="591" 
d="M145 0h-95v500h491v-500h-95v487h-301v-487z" />
    <glyph glyph-name="uni0440" unicode="&#x440;" horiz-adv-x="645" 
d="M145 -261h-95v761h95v-253q10 60 20 90q31 96 78 137.5t129 41.5q109 0 173.5 -72.5t64.5 -197.5q0 -65 -15.5 -112.5t-41 -75.5t-65.5 -44.5t-80.5 -22t-94.5 -5.5q-95 0 -168 38v-285zM180 331q-33 -111 -35 -292q75 -39 168 -39q51 0 84 9t60.5 34t40.5 75t13 127
q0 121 -31 188t-107 67q-70 0 -118 -39t-75 -130z" />
    <glyph glyph-name="uni0441" unicode="&#x441;" horiz-adv-x="584" 
d="M314 -16q-137 0 -208 73t-71 193q0 118 73.5 191.5t205.5 73.5q98 0 152 -38.5t63 -97.5l-17 -4q-8 54 -56 89t-142 35q-76 0 -127 -65t-51 -184q0 -110 46 -179.5t132 -69.5q142 0 237 83l8 -10q-1 -1 -7.5 -7t-12.5 -10.5t-16.5 -12t-21.5 -13.5t-26 -13.5t-32.5 -13
t-37 -10.5t-43 -7.5t-48.5 -2.5z" />
    <glyph glyph-name="uni0442" unicode="&#x442;" horiz-adv-x="489" 
d="M198 484h-198v16h489v-16h-196v-484h-95v484z" />
    <glyph glyph-name="uni0443" unicode="&#x443;" horiz-adv-x="625" 
d="M30 500h109l277 -455l161 455h18l-233 -657q-10 -28 -37 -45.5t-62 -17.5q-49 0 -79.5 30t-31.5 80q-1 45 32 77.5t79 32.5h74zM263 -16q-39 0 -66.5 -27.5t-27.5 -66.5q0 -33 25.5 -63t66.5 -30q29 0 53.5 14.5t32.5 37.5l47 135h-131z" />
    <glyph glyph-name="uni0444" unicode="&#x444;" horiz-adv-x="790" 
d="M307 -14q-115 0 -193.5 74t-78.5 189t79 190t194 75h40v231h95v-231h40q115 0 193.5 -75t78.5 -190t-79 -189t-194 -74h-40l1 -247h-95l-1 247h-40zM443 500l-1 -500h40q74 0 124.5 70.5t50.5 178.5t-51 179.5t-124 71.5h-39zM308 500q-73 0 -124 -71.5t-51 -179.5
t50.5 -178.5t124.5 -70.5h39l1 500h-40z" />
    <glyph glyph-name="uni0445" unicode="&#x445;" horiz-adv-x="553" 
d="M233 230l-203 270h119l143 -191l143 191h21l-154 -205l221 -295h-118l-162 216l-162 -216h-21z" />
    <glyph glyph-name="uni0446" unicode="&#x446;" horiz-adv-x="591" 
d="M50 500h95v-484h301v484h95v-500h-188q60 -33 60 -101q0 -48 -34.5 -82.5t-83.5 -34.5q-48 0 -82.5 34.5t-34.5 82.5h17q0 -41 29.5 -70.5t70.5 -29.5q42 0 71.5 29.5t29.5 70.5q0 42 -29.5 71.5t-70.5 29.5h-246v500z" />
    <glyph glyph-name="uni0447" unicode="&#x447;" horiz-adv-x="582" 
d="M234 156q-101 0 -142.5 52t-41.5 182v111h96v-195q0 -133 87 -133q71 0 114.5 34.5t65.5 120.5q24 98 24 173h95v-501h-95v373q-21 -113 -66 -165t-137 -52z" />
    <glyph glyph-name="uni0448" unicode="&#x448;" horiz-adv-x="733" 
d="M50 0v501h95v-485h174v727h95v-727h174v485h95v-501h-633z" />
    <glyph glyph-name="uni0449" unicode="&#x449;" horiz-adv-x="733" 
d="M50 0v500h95v-484h174v726h95v-726h174v484h95v-500h-255q56 -35 56 -99q0 -49 -34.5 -83.5t-83.5 -34.5q-48 0 -82.5 34.5t-34.5 83.5h17q0 -42 29.5 -71.5t70.5 -29.5q42 0 71.5 29.5t29.5 71.5q0 37 -24.5 65.5t-60.5 33.5h-332z" />
    <glyph glyph-name="uni044A" unicode="&#x44a;" 
d="M-23 421q0 33 23 56t56 23h161v-114h124q53 0 98.5 -9t88 -29t67 -59.5t24.5 -94.5q0 -51 -16 -87t-41.5 -56.5t-67.5 -32t-82 -15t-97 -3.5h-192l1 483h-68q-26 0 -44 -18.5t-18 -43.5q0 -26 18 -44.5t44 -18.5v-16q-33 0 -56 23t-23 56zM217 14h98q109 0 156.5 38.5
t47.5 141.5q0 97 -50 138t-128 41h-124v-359z" />
    <glyph glyph-name="uni044B" unicode="&#x44b;" horiz-adv-x="776" 
d="M242 0h-192v501h95v-115h124q52 0 97.5 -9t88 -29t67.5 -59.5t25 -94.5q0 -51 -16.5 -87t-41.5 -56.5t-67 -32t-82.5 -15t-97.5 -3.5zM145 14h97q109 0 157 38.5t48 141.5q0 97 -50.5 138t-127.5 41h-124v-359zM726 1h-95v500h95v-500z" />
    <glyph glyph-name="uni044C" unicode="&#x44c;" horiz-adv-x="582" 
d="M50 0v501h95v-115h124q52 0 97.5 -9t88 -29t67.5 -59.5t25 -94.5q0 -51 -16.5 -87t-41.5 -56.5t-67 -32t-82.5 -15t-97.5 -3.5h-192zM145 14h97q109 0 157 38.5t48 141.5q0 97 -50.5 138t-127.5 41h-124v-359z" />
    <glyph glyph-name="uni044D" unicode="&#x44d;" horiz-adv-x="584" 
d="M25 74l8 10q99 -85 237 -85q83 0 130 66t49 171h-266v16h266q-1 118 -52 182.5t-127 64.5q-94 0 -141.5 -34.5t-56.5 -89.5l-17 4q9 59 63.5 97.5t151.5 38.5q132 0 205.5 -73.5t73.5 -191.5q0 -120 -71 -193t-208 -73q-25 0 -48.5 2.5t-43 7.5t-37 10.5t-32.5 13
t-26 13.5t-21.5 13.5t-16.5 12t-12.5 10.5t-7.5 7z" />
    <glyph glyph-name="uni044E" unicode="&#x44e;" horiz-adv-x="855" 
d="M50 0v500h95v-303q33 151 131.5 235t251.5 84q128 0 210 -69.5t82 -196.5t-82 -196.5t-210 -69.5t-210 69.5t-82 196.5q0 104 61 175q-139 -103 -152 -359v-66h-95zM334 250q0 -129 46.5 -190t147.5 -61q100 0 147 61.5t47 189.5q0 251 -194 251t-194 -251z" />
    <glyph glyph-name="uni044F" unicode="&#x44f;" horiz-adv-x="587" 
d="M241 190q-115 0 -160 39t-45 129q0 156 223 156q42 0 75.5 -15.5t52.5 -37t32 -49.5t17.5 -47.5t5.5 -35.5v171h95v-499h-95q0 134 -4 189h-180l-43 -130q-10 -32 -33 -50.5t-51 -18.5q-35 0 -59.5 24.5t-24.5 59.5q0 33 22 58l12 -11q-18 -21 -18 -47q1 -29 19 -47.5
t47 -19.5q23 -1 41.5 14.5t28.5 43.5zM132 358q0 -86 29 -120t95 -34h181q0 2 -2 40t-4.5 63t-14 65t-29 65t-51 44t-78.5 19q-52 0 -89 -33.5t-37 -108.5z" />
    <glyph glyph-name="uni0451" unicode="&#x451;" horiz-adv-x="584" 
d="M35 250q0 118 73.5 191.5t205.5 73.5q61 0 104.5 -17t68 -43.5t38 -70t17.5 -84t4 -97.5h-408q9 -91 54.5 -146.5t121.5 -55.5q142 0 237 83l8 -10q-1 -1 -7.5 -7t-12.5 -10.5t-16.5 -12t-21.5 -13.5t-26 -13.5t-32.5 -13t-37 -10.5t-43 -7.5t-48.5 -2.5q-137 0 -208 73
t-71 193zM314 499q-52 0 -90 -27t-56.5 -70t-26 -89.5t-4.5 -93.5h390q0 50 -4.5 87.5t-18 75.5t-36 62.5t-61.5 39.5t-93 15zM373 635q-20 0 -34 14t-14 34q0 19 14.5 33.5t33.5 14.5q20 0 34 -14t14 -34t-14 -34t-34 -14zM223 635q-20 0 -34 14t-14 34q0 19 14.5 33.5
t33.5 14.5q20 0 34 -14t14 -34t-14 -34t-34 -14z" />
    <glyph glyph-name="uni0454" unicode="&#x454;" horiz-adv-x="584" 
d="M314 -16q-137 0 -208 73t-71 193q0 118 73.5 191.5t205.5 73.5q98 0 152 -38.5t63 -97.5l-17 -4q-8 54 -56 89t-142 35q-76 0 -126.5 -64.5t-51.5 -182.5h265v-16h-265q3 -105 49.5 -171t128.5 -66q140 0 237 85l8 -10q-1 -1 -7.5 -7t-12.5 -10.5t-16.5 -12t-21.5 -13.5
t-26 -13.5t-32.5 -13t-37 -10.5t-43 -7.5t-48.5 -2.5z" />
    <glyph glyph-name="uni0455" unicode="&#x455;" horiz-adv-x="545" 
d="M394 291q111 -39 111 -149q0 -86 -59 -121t-169 -35q-123 0 -180 41.5t-57 132.5l96 14q0 -101 29.5 -137t125.5 -36q94 0 124.5 25.5t30.5 68.5q0 63 -42 90t-137 43q-112 18 -160 49.5t-48 96.5q0 67 47 103t138 36q220 0 220 -212zM267 319q57 -9 91 -18l16 -4
q0 45 -1.5 68.5t-8.5 54t-21 44.5t-41.5 24.5t-67.5 10.5q-66 0 -97.5 -23t-31.5 -61q0 -44 37.5 -62.5t124.5 -33.5z" />
    <glyph glyph-name="uni0456" unicode="&#x456;" horiz-adv-x="210" 
d="M150 0h-95v500h95v-500zM105 619q-27 0 -46 19t-19 46t19 46t46 19t46 -19t19 -46t-19 -46t-46 -19z" />
    <glyph glyph-name="uni0457" unicode="&#x457;" horiz-adv-x="252" 
d="M79 500h95v-500h-95v500zM184 636q-20 0 -34 14t-14 34t14 34t34 14t34 -14t14 -34t-14 -34t-34 -14zM68 636q-20 0 -34 14t-14 34t14 34t34 14t34 -14t14 -34t-14 -34t-34 -14z" />
    <glyph glyph-name="uni0458" unicode="&#x458;" horiz-adv-x="405" 
d="M6 -144q-8 104 42 196.5t140 182.5l12 -12q-192 -193 -178 -366q4 -60 33.5 -88.5t85.5 -29.5q108 2 108 145v616h96v-492q0 -47 -4.5 -85t-17.5 -76.5t-35 -64.5t-59 -42.5t-87 -16.5q-127 0 -136 133zM235 678q0 27 19 46t46 19t46 -19t19 -46t-19 -46t-46 -19t-46 19
t-19 46z" />
    <glyph glyph-name="uni045E" unicode="&#x45e;" horiz-adv-x="625" 
d="M337 0l-307 500h109l277 -455l161 455h18l-233 -657q-10 -28 -37 -45.5t-62 -17.5q-49 0 -79.5 30t-31.5 80q-1 45 32 77.5t79 32.5h74zM263 -16q-39 0 -66.5 -27.5t-27.5 -66.5q0 -33 25.5 -63t66.5 -30q29 0 53.5 14.5t32.5 37.5l47 135h-131zM265 647h17q0 -23 17 -40
t40 -17t40 17t17 40h16q0 -31 -21 -52t-52 -21t-52.5 21t-21.5 52z" />
    <glyph glyph-name="uni0490" unicode="&#x490;" horiz-adv-x="544" 
d="M50 0v697h458v90q0 29 -21 50t-50 21t-50 -21t-21 -50h-17q0 37 25.5 62.5t62.5 25.5q36 0 61.5 -25.5t25.5 -62.5v-106h-379v-681h-95z" />
    <glyph glyph-name="uni0491" unicode="&#x491;" horiz-adv-x="454" 
d="M145 0h-95v500h367v89q0 29 -20.5 50t-49.5 21t-50 -21t-21 -50h-17q0 36 26 62t62 26t61.5 -26t25.5 -62v-105h-290z" />
    <glyph glyph-name="endash" unicode="&#x2013;" horiz-adv-x="702" 
d="M677 288h-652v17h652v-17z" />
    <glyph glyph-name="emdash" unicode="&#x2014;" horiz-adv-x="920" 
d="M891 288h-870v17h870v-17z" />
    <glyph glyph-name="quoteleft" unicode="&#x2018;" horiz-adv-x="197" 
d="M105 578q-54 0 -74 41.5t-5 93.5q9 30 35 48.5t58 18.5q29 0 58 -15l-8 -15q-25 14 -50 14q-14 0 -33 -7q-29 -12 -41 -41.5t-5 -62.5q4 24 22.5 40t42.5 16q27 0 46 -19.5t19 -46.5t-19 -46t-46 -19z" />
    <glyph glyph-name="quoteright" unicode="&#x2019;" horiz-adv-x="197" 
d="M20 574l8 14q23 -13 49 -13q18 0 33 6q29 12 41.5 42t5.5 62q-4 -23 -22 -39t-43 -16q-27 0 -46 19t-19 46t19 46t46 19q54 0 74 -41t5 -93q-9 -31 -35 -49.5t-58 -18.5q-30 0 -58 16z" />
    <glyph glyph-name="quotesinglbase" unicode="&#x201a;" horiz-adv-x="197" 
d="M20 -72l8 14q23 -13 49 -13q18 0 33 6q29 12 41.5 42.5t5.5 62.5q-4 -24 -22 -40t-43 -16q-27 0 -46 19t-19 46t19 46t46 19q54 0 74 -41t5 -93q-9 -31 -35 -49.5t-58 -18.5q-30 0 -58 16z" />
    <glyph glyph-name="quotedblleft" unicode="&#x201c;" horiz-adv-x="375" 
d="M283 578q-54 0 -74 41.5t-5 93.5q9 31 35 49t58 18q29 0 58 -15l-8 -15q-25 14 -50 14q-14 0 -33 -7q-29 -12 -41 -41.5t-5 -62.5q4 24 22.5 40t42.5 16q27 0 46 -19.5t19 -46.5t-19 -46t-46 -19zM105 578q-54 0 -74 41.5t-5 93.5q9 30 35 48.5t58 18.5q29 0 58 -15
l-8 -15q-25 14 -50 14q-14 0 -33 -7q-29 -12 -41 -41.5t-5 -62.5q4 24 22.5 40t42.5 16q27 0 46 -19.5t19 -46.5t-19 -46t-46 -19z" />
    <glyph glyph-name="quotedblright" unicode="&#x201d;" horiz-adv-x="375" 
d="M78 575q-30 0 -58 16l8 14q23 -13 49 -13q18 0 33 6q29 12 41.5 42t5.5 62q-4 -23 -22 -39t-43 -16q-27 0 -46 19t-19 46t19 46t46 19q54 0 74 -41t5 -93q-9 -31 -35 -49.5t-58 -18.5zM256 575q-30 0 -58 16l8 14q23 -13 49 -13q18 0 33 6q29 12 41.5 42t5.5 62
q-4 -23 -22 -39t-43 -16q-27 0 -46 19t-19 46t19 46t46 19q54 0 74 -41t5 -93q-9 -31 -35 -49.5t-58 -18.5z" />
    <glyph glyph-name="quotedblbase" unicode="&#x201e;" horiz-adv-x="375" 
d="M78 -83q-28 0 -58 16l8 14q23 -13 49 -13q18 0 33 6q29 12 41.5 42.5t5.5 62.5q-4 -24 -22 -40t-43 -16q-27 0 -46 19t-19 46t19 46t46 19q54 0 74 -41t5 -93q-9 -31 -35 -49.5t-58 -18.5zM256 -83q-28 0 -58 16l8 14q23 -13 49 -13q18 0 33 6q29 12 41.5 42.5t5.5 62.5
q-4 -24 -22 -40t-43 -16q-27 0 -46 19t-19 46t19 46t46 19q54 0 74 -41t5 -93q-9 -31 -35 -49.5t-58 -18.5z" />
    <glyph glyph-name="bullet" unicode="&#x2022;" horiz-adv-x="376" 
d="M123 249q0 27 19 46.5t46 19.5t46 -19.5t19 -46.5t-19 -46t-46 -19t-46 19t-19 46z" />
    <glyph glyph-name="ellipsis" unicode="&#x2026;" horiz-adv-x="528" 
d="M378 49q0 27 19 46.5t46 19.5t46 -19.5t19 -46.5t-19 -46t-46 -19t-46 19t-19 46zM266 -16q-27 0 -46 19t-19 46t19 46.5t46 19.5t46.5 -19.5t19.5 -46.5t-19.5 -46t-46.5 -19zM20 49q0 27 19 46.5t46 19.5t46 -19.5t19 -46.5t-19 -46t-46 -19t-46 19t-19 46z" />
    <glyph glyph-name="guilsinglleft" unicode="&#x2039;" horiz-adv-x="420" 
d="M380 564l-315 -282l315 -282h-25l-315 282l315 282h25z" />
    <glyph glyph-name="guilsinglright" unicode="&#x203a;" horiz-adv-x="420" 
d="M65 564l315 -282l-315 -282h-25l315 282l-315 282h25z" />
    <glyph glyph-name="Euro" unicode="&#x20ac;" horiz-adv-x="616" 
d="M73 421h-38v17h371v-17h-234q7 -97 52.5 -156.5t123.5 -59.5q138 0 235 83l8 -10q-1 -1 -7.5 -7t-12.5 -10t-16.5 -12t-21.5 -14t-26 -13.5t-31.5 -12.5t-36.5 -10t-43 -7.5t-48 -2.5q-126 0 -196 63t-79 169zM35 467v16h38q9 105 81 168.5t194 63.5q97 0 150.5 -38
t62.5 -97l-16 -3q-9 54 -56.5 88.5t-140.5 34.5q-70 0 -119.5 -56.5t-55.5 -160.5h233v-16h-371z" />
    <glyph glyph-name="uni20B4" unicode="&#x20b4;" horiz-adv-x="676" 
d="M70 473h108q22 11 41 17l-81 12q0 210 222 210q86 0 146.5 -31.5t60.5 -95.5q0 -80 -46 -112h85v-17h-536v17zM360 699q-28 0 -49 -4t-35 -11.5t-23.5 -19t-14 -26t-7 -32.5t-2.5 -39v-45v-28q52 16 130 24q88 9 124 28t36 57q0 54 -42 75t-117 21zM70 387v17h536v-17
h-391q-55 -27 -55 -79q0 -56 40.5 -84.5t135.5 -28.5q77 0 109.5 36t32.5 127l97 -12q0 -77 -70.5 -121.5t-167.5 -44.5h-1q-109 0 -172 42.5t-63 121.5q0 21 5 43h-36z" />
    <glyph glyph-name="minus" unicode="&#x2212;" horiz-adv-x="371" 
d="M346 288h-321v17h321v-17z" />
    <glyph glyph-name="K.alt" horiz-adv-x="611" 
d="M145 0h-95v696h95v-325h83v31v62.5t3.5 60t10 60t20 49.5t33 43t50 25.5t69.5 10.5q62 0 104 -42t42 -104q0 -61 -43 -104t-103 -43v17q53 0 91 38t38 92q0 55 -37 92t-92 37q-28 0 -51 -6t-39.5 -14.5t-29.5 -25t-21.5 -29.5t-14.5 -38t-9 -39.5t-4 -44t-1.5 -42.5
t0 -44.5t0.5 -41.5q183 -3 257.5 -94t74.5 -277h-109q0 35 -0.5 57t-2.5 56t-6 55.5t-12 49.5t-19 46t-27.5 37.5t-38.5 30.5t-51 18t-65 7h-100v-357z" />
    <glyph glyph-name="k.alt" horiz-adv-x="533" 
d="M145 0h-95v744h95v-472h79q-2 28 -0.5 56.5t3.5 56t12 51.5t24.5 41.5t41.5 28t63 10.5q42 0 72 -30t30 -72q0 -43 -30 -73t-72 -30v17q35 0 60.5 25t25.5 61q0 35 -25.5 60.5t-60.5 25.5q-27 0 -48 -6.5t-34.5 -17.5t-23 -27t-13.5 -34t-6.5 -38.5t-2.5 -41.5v-42v-21
q133 -4 195.5 -71t62.5 -201h-98q0 40 -1.5 65.5t-6 59.5t-16 55t-29.5 41t-47.5 29.5t-69.5 9.5h-85v-260z" />
    <glyph glyph-name="uni041A.alt" horiz-adv-x="611" 
d="M145 0h-95v696h95v-325h83v31v62.5t3.5 60t10 60t20 49.5t33 43t50 25.5t69.5 10.5q62 0 104 -42t42 -104q0 -61 -43 -104t-103 -43v17q53 0 91 38t38 92q0 55 -37 92t-92 37q-28 0 -51 -6t-39.5 -14.5t-29.5 -25t-21.5 -29.5t-14.5 -38t-9 -39.5t-4 -44t-1.5 -42.5
t0 -44.5t0.5 -41.5q183 -3 257.5 -94t74.5 -277h-109q0 35 -0.5 57t-2.5 56t-6 55.5t-12 49.5t-19 46t-27.5 37.5t-38.5 30.5t-51 18t-65 7h-100v-357z" />
    <glyph glyph-name="uni043A.alt" horiz-adv-x="533" 
d="M145 0h-95v744h95v-472h79q-2 28 -0.5 56.5t3.5 56t12 51.5t24.5 41.5t41.5 28t63 10.5q42 0 72 -30t30 -72q0 -43 -30 -73t-72 -30v17q35 0 60.5 25t25.5 61q0 35 -25.5 60.5t-60.5 25.5q-27 0 -48 -6.5t-34.5 -17.5t-23 -27t-13.5 -34t-6.5 -38.5t-2.5 -41.5v-42v-21
q133 -4 195.5 -71t62.5 -201h-98q0 40 -1.5 65.5t-6 59.5t-16 55t-29.5 41t-47.5 29.5t-69.5 9.5h-85v-260z" />
    <glyph glyph-name="uni041D.alt" horiz-adv-x="664" 
d="M145 0h-95v697h95q129 0 231 -76q108 -81 143 -232v308h95v-697h-95v259q-4 80 -23 145.5t-45 108t-61 74.5t-67.5 49t-69.5 27.5t-61 13t-47 2.5v-679z" />
    <glyph glyph-name="uni043D.alt" horiz-adv-x="621" 
d="M50 0v500h95q122 0 210 -76q89 -76 121 -226v302h95v-500h-95v68q-5 109 -34.5 190t-66.5 123t-85.5 67.5t-81 31.5t-63.5 6v-486h-95z" />
    <glyph glyph-name="Z.alt" horiz-adv-x="744" 
d="M40 680v17h654l-428 -571q107 85 220 85q70 0 129 -36q55 -34 76 -93t8.5 -114.5t-59.5 -96.5t-115 -41q-82 0 -128 45t-46 124h17q0 -73 41 -112.5t116 -39.5q62 0 104.5 37.5t54 87.5t-8 104t-69.5 85q-55 34 -121 34q-88 0 -173.5 -57t-140.5 -139h-119l512 681h-524z
" />
    <glyph glyph-name="z.alt" horiz-adv-x="601" 
d="M405 487h-375v13h505l-288 -382q75 54 154 54q56 0 101 -28q43 -26 59.5 -72.5t6 -89.5t-46.5 -75t-89 -32q-62 0 -98 32.5t-38 91.5h16q2 -51 33.5 -79.5t86.5 -28.5q47 0 79 28.5t41 67t-5.5 79.5t-53.5 64q-43 26 -92 26q-55 0 -109 -29.5t-95 -75.5l-37 -51h-118z
" />
    <glyph glyph-name="Edieresis.1" horiz-adv-x="571" 
d="M50 0v697h502v-16h-407v-310h317v-16h-317v-338h407v-17h-502z" />
    <glyph glyph-name="L.alt" horiz-adv-x="570" 
d="M550 0h-500v427q0 47 4.5 85t17.5 76.5t35 64.5t59 42.5t87 16.5q127 -2 136 -133q8 -104 -42.5 -196.5t-140.5 -182.5l-11 12q192 192 177 366q-5 60 -33.5 89t-84.5 29q-108 0 -108 -145v-535h404v-16z" />
    <glyph glyph-name="Zcaron.alt" horiz-adv-x="744" 
d="M40 697h654l-428 -571q107 85 220 85q70 0 129 -36q55 -34 76 -93t8.5 -114.5t-59.5 -96.5t-115 -41q-82 0 -128 45t-46 124h17q0 -73 41 -112.5t116 -39.5q62 0 104.5 37.5t54 87.5t-8 104t-69.5 85q-55 34 -121 34q-88 0 -173.5 -57t-140.5 -139h-119l512 681h-524v17z
M373 745l-109 106l12 11l97 -94l97 94l12 -11z" />
    <glyph glyph-name="zcaron.alt" horiz-adv-x="577" 
d="M30 487v13h505l-288 -382q75 54 154 54q56 0 101 -28q43 -26 59.5 -72.5t6 -89.5t-46.5 -75t-89 -32q-62 0 -98 32.5t-38 91.5h16q2 -51 33.5 -79.5t86.5 -28.5q47 0 79 28.5t41 67t-5.5 79.5t-53.5 64q-43 26 -92 26q-55 0 -109 -29.5t-95 -75.5l-37 -51h-118l363 487
h-375zM289 589l-109 106l11 11l98 -94l97 94l11 -11z" />
    </font>
</defs>
</svg>
