<?xml version="1.0" standalone="no"?>
<!DOCTYPE svg PUBLIC "-//W3C//DTD SVG 20010904//EN"
 "http://www.w3.org/TR/2001/REC-SVG-20010904/DTD/svg10.dtd">
<svg version="1.0" xmlns="http://www.w3.org/2000/svg"
 width="938.000000pt" height="980.000000pt" viewBox="0 0 938.000000 980.000000"
 preserveAspectRatio="xMidYMid meet">
<metadata>
Created by potrace 1.16, written by Peter Selinger 2001-2019
</metadata>
<g transform="translate(0.000000,980.000000) scale(0.100000,-0.100000)"
fill="#000000" stroke="none">
<path d="M3779 9773 c-40 -21 -59 -38 -74 -68 -19 -38 -20 -60 -20 -520 0
-548 -4 -522 89 -579 85 -53 163 -37 258 51 l48 46 0 481 0 482 -52 51 c-89
88 -156 103 -249 56z"/>
<path d="M2149 9337 c-56 -30 -100 -99 -107 -165 -5 -58 10 -91 196 -417 203
-356 269 -453 333 -485 92 -47 206 -3 260 102 29 58 24 93 -35 213 -92 191
-340 611 -414 704 -60 74 -149 92 -233 48z"/>
<path d="M5435 9341 c-51 -23 -74 -50 -169 -200 -176 -278 -351 -602 -362
-672 -26 -156 161 -276 291 -188 58 40 292 414 437 697 56 111 68 142 68 182
0 86 -38 145 -115 181 -51 24 -99 24 -150 0z"/>
<path d="M3660 8155 c-419 -53 -791 -236 -1082 -531 -53 -55 -117 -124 -141
-155 -164 -204 -301 -493 -358 -756 -26 -122 -39 -531 -20 -619 22 -97 124
-165 226 -150 64 10 117 61 178 170 64 115 101 158 427 493 425 437 643 638
745 691 98 49 325 56 452 12 69 -24 166 -88 210 -140 53 -63 294 -388 533
-720 423 -588 512 -698 588 -720 53 -17 108 0 165 51 51 44 72 96 98 239 21
114 18 526 -4 655 -61 347 -264 717 -539 981 -174 167 -351 278 -619 388 -243
100 -590 145 -859 111z"/>
<path d="M6680 8162 c-14 -1 -38 -8 -55 -14 -64 -25 -504 -283 -692 -406 -118
-78 -128 -93 -128 -202 0 -90 19 -123 89 -159 68 -33 118 -32 200 7 169 79
665 369 735 428 24 21 50 53 57 71 17 39 18 111 3 150 -11 31 -63 88 -94 106
-26 14 -83 23 -115 19z"/>
<path d="M965 8146 c-78 -35 -132 -127 -121 -203 9 -68 33 -99 126 -162 202
-138 625 -376 730 -411 74 -25 108 -22 158 16 56 43 92 109 92 168 0 75 -31
121 -120 182 -87 59 -484 290 -629 366 -109 57 -180 70 -236 44z"/>
<path d="M3832 6936 c-41 -14 -170 -134 -603 -560 l-346 -341 -627 -1252 -626
-1252 0 -390 0 -390 -328 -333 c-180 -183 -361 -372 -403 -420 -92 -105 -86
-69 -95 -558 l-7 -345 -366 -370 c-202 -203 -382 -392 -400 -420 -29 -44 -32
-56 -28 -101 8 -75 28 -134 52 -150 78 -51 571 -56 5105 -50 2347 2 3997 8
4044 14 75 8 81 11 117 49 36 39 59 93 59 141 0 60 -53 136 -725 1037 l-522
700 -163 490 c-187 562 -243 721 -266 746 -38 42 -378 221 -1207 635 l-448
224 -662 927 c-1066 1492 -1332 1858 -1405 1926 -41 39 -107 58 -150 43z m196
-769 c387 -534 1645 -2301 1645 -2311 0 -13 -180 -247 -604 -786 -366 -464
-332 -425 -346 -409 -22 28 -182 338 -439 851 l-264 528 -670 335 -670 335
271 543 270 542 310 308 c170 170 313 306 319 302 5 -3 86 -110 178 -238z"/>
<path d="M625 6521 c-55 -4 -110 -12 -121 -19 -54 -29 -104 -114 -104 -178 0
-36 50 -121 95 -163 l45 -41 475 0 475 0 45 41 c49 45 95 128 95 171 0 70 -65
160 -130 179 -42 13 -730 21 -875 10z"/>
<path d="M6199 6490 c-54 -56 -71 -93 -71 -156 -1 -61 32 -137 72 -166 46 -33
126 -39 520 -39 435 -1 502 6 555 53 35 30 65 100 65 153 0 46 -44 126 -86
154 -49 33 -146 40 -633 40 l-384 1 -38 -40z"/>
<path d="M1673 5280 c-136 -48 -742 -413 -791 -475 -98 -125 10 -318 170 -303
60 6 193 71 438 214 285 167 407 251 435 299 57 97 17 216 -90 266 -51 23 -96
23 -162 -1z"/>
<path d="M5891 5275 c-79 -57 -108 -145 -81 -241 15 -51 32 -67 185 -162 153
-94 485 -283 575 -326 69 -33 96 -40 145 -41 51 0 66 4 98 29 21 16 50 49 64
73 22 37 25 53 21 104 -3 38 -11 69 -24 87 -37 49 -313 222 -629 394 -207 112
-289 132 -354 83z"/>
</g>
</svg>
